%TF.GenerationSoftware,KiCad,Pcbnew,(6.0.5)*%
%TF.CreationDate,2022-07-03T04:30:49-06:00*%
%TF.ProjectId,usbc-daughter-board,75736263-2d64-4617-9567-687465722d62,1.0*%
%TF.SameCoordinates,Original*%
%TF.FileFunction,Copper,L1,Top*%
%TF.FilePolarity,Positive*%
%FSLAX46Y46*%
G04 Gerber Fmt 4.6, Leading zero omitted, Abs format (unit mm)*
G04 Created by KiCad (PCBNEW (6.0.5)) date 2022-07-03 04:30:49*
%MOMM*%
%LPD*%
G01*
G04 APERTURE LIST*
G04 Aperture macros list*
%AMRoundRect*
0 Rectangle with rounded corners*
0 $1 Rounding radius*
0 $2 $3 $4 $5 $6 $7 $8 $9 X,Y pos of 4 corners*
0 Add a 4 corners polygon primitive as box body*
4,1,4,$2,$3,$4,$5,$6,$7,$8,$9,$2,$3,0*
0 Add four circle primitives for the rounded corners*
1,1,$1+$1,$2,$3*
1,1,$1+$1,$4,$5*
1,1,$1+$1,$6,$7*
1,1,$1+$1,$8,$9*
0 Add four rect primitives between the rounded corners*
20,1,$1+$1,$2,$3,$4,$5,0*
20,1,$1+$1,$4,$5,$6,$7,0*
20,1,$1+$1,$6,$7,$8,$9,0*
20,1,$1+$1,$8,$9,$2,$3,0*%
G04 Aperture macros list end*
%TA.AperFunction,SMDPad,CuDef*%
%ADD10RoundRect,0.218750X-0.256250X0.218750X-0.256250X-0.218750X0.256250X-0.218750X0.256250X0.218750X0*%
%TD*%
%TA.AperFunction,SMDPad,CuDef*%
%ADD11RoundRect,0.200000X-0.275000X0.200000X-0.275000X-0.200000X0.275000X-0.200000X0.275000X0.200000X0*%
%TD*%
%TA.AperFunction,SMDPad,CuDef*%
%ADD12RoundRect,0.150000X-0.150000X0.512500X-0.150000X-0.512500X0.150000X-0.512500X0.150000X0.512500X0*%
%TD*%
%TA.AperFunction,SMDPad,CuDef*%
%ADD13RoundRect,0.225000X0.250000X-0.225000X0.250000X0.225000X-0.250000X0.225000X-0.250000X-0.225000X0*%
%TD*%
%TA.AperFunction,SMDPad,CuDef*%
%ADD14RoundRect,0.150000X-0.150000X-0.700000X0.150000X-0.700000X0.150000X0.700000X-0.150000X0.700000X0*%
%TD*%
%TA.AperFunction,SMDPad,CuDef*%
%ADD15RoundRect,0.250000X-0.250000X-1.100000X0.250000X-1.100000X0.250000X1.100000X-0.250000X1.100000X0*%
%TD*%
%TA.AperFunction,SMDPad,CuDef*%
%ADD16R,0.600000X1.450000*%
%TD*%
%TA.AperFunction,SMDPad,CuDef*%
%ADD17R,0.300000X1.450000*%
%TD*%
%TA.AperFunction,ComponentPad*%
%ADD18O,1.000000X1.600000*%
%TD*%
%TA.AperFunction,ComponentPad*%
%ADD19O,1.000000X2.100000*%
%TD*%
%TA.AperFunction,ViaPad*%
%ADD20C,0.700000*%
%TD*%
%TA.AperFunction,Conductor*%
%ADD21C,0.500000*%
%TD*%
%TA.AperFunction,Conductor*%
%ADD22C,0.300000*%
%TD*%
%TA.AperFunction,Conductor*%
%ADD23C,0.261112*%
%TD*%
G04 APERTURE END LIST*
D10*
%TO.P,F1,1*%
%TO.N,/CON_VBUS*%
X130030000Y-71542500D03*
%TO.P,F1,2*%
%TO.N,VBUS*%
X130030000Y-73117500D03*
%TD*%
D11*
%TO.P,R1,1*%
%TO.N,/CON_CC2*%
X121340000Y-65815000D03*
%TO.P,R1,2*%
%TO.N,GND*%
X121340000Y-67465000D03*
%TD*%
D12*
%TO.P,U1,1,I/O1*%
%TO.N,/CON_USB_D-*%
X128450000Y-71362500D03*
%TO.P,U1,2,GND*%
%TO.N,GND*%
X127500000Y-71362500D03*
%TO.P,U1,3,I/O2*%
%TO.N,/CON_USB_D+*%
X126550000Y-71362500D03*
%TO.P,U1,4,I/O2*%
%TO.N,/JST_USB_D+*%
X126550000Y-73637500D03*
%TO.P,U1,5,VBUS*%
%TO.N,VBUS*%
X127500000Y-73637500D03*
%TO.P,U1,6,I/O1*%
%TO.N,/JST_USB_D-*%
X128450000Y-73637500D03*
%TD*%
D13*
%TO.P,C1,1*%
%TO.N,VBUS*%
X131580000Y-73105000D03*
%TO.P,C1,2*%
%TO.N,GND*%
X131580000Y-71555000D03*
%TD*%
D14*
%TO.P,J2,1,Pin_1*%
%TO.N,GND*%
X125615000Y-75900000D03*
%TO.P,J2,2,Pin_2*%
%TO.N,/JST_USB_D+*%
X126865000Y-75900000D03*
%TO.P,J2,3,Pin_3*%
%TO.N,/JST_USB_D-*%
X128115000Y-75900000D03*
%TO.P,J2,4,Pin_4*%
%TO.N,VBUS*%
X129365000Y-75900000D03*
D15*
%TO.P,J2,MP*%
%TO.N,N/C*%
X123765000Y-79100000D03*
X131215000Y-79100000D03*
%TD*%
D11*
%TO.P,R2,1*%
%TO.N,/CON_CC1*%
X133650000Y-65830000D03*
%TO.P,R2,2*%
%TO.N,GND*%
X133650000Y-67480000D03*
%TD*%
D16*
%TO.P,J1,A1,GND*%
%TO.N,GND*%
X130750000Y-68955000D03*
%TO.P,J1,A4,VBUS*%
%TO.N,/CON_VBUS*%
X129950000Y-68955000D03*
D17*
%TO.P,J1,A5,CC1*%
%TO.N,/CON_CC1*%
X128750000Y-68955000D03*
%TO.P,J1,A6,D+*%
%TO.N,/CON_USB_D+*%
X127750000Y-68955000D03*
%TO.P,J1,A7,D-*%
%TO.N,/CON_USB_D-*%
X127250000Y-68955000D03*
%TO.P,J1,A8,SBU1*%
%TO.N,unconnected-(J1-PadA8)*%
X126250000Y-68955000D03*
D16*
%TO.P,J1,A9,VBUS*%
%TO.N,/CON_VBUS*%
X125050000Y-68955000D03*
%TO.P,J1,A12,GND*%
%TO.N,GND*%
X124250000Y-68955000D03*
%TO.P,J1,B1,GND*%
X124250000Y-68955000D03*
%TO.P,J1,B4,VBUS*%
%TO.N,/CON_VBUS*%
X125050000Y-68955000D03*
D17*
%TO.P,J1,B5,CC2*%
%TO.N,/CON_CC2*%
X125750000Y-68955000D03*
%TO.P,J1,B6,D+*%
%TO.N,/CON_USB_D+*%
X126750000Y-68955000D03*
%TO.P,J1,B7,D-*%
%TO.N,/CON_USB_D-*%
X128250000Y-68955000D03*
%TO.P,J1,B8,SBU2*%
%TO.N,unconnected-(J1-PadB8)*%
X129250000Y-68955000D03*
D16*
%TO.P,J1,B9,VBUS*%
%TO.N,/CON_VBUS*%
X129950000Y-68955000D03*
%TO.P,J1,B12,GND*%
%TO.N,GND*%
X130750000Y-68955000D03*
D18*
%TO.P,J1,S1,SHIELD*%
%TO.N,unconnected-(J1-PadS1)*%
X131820000Y-63860000D03*
D19*
X131820000Y-68040000D03*
D18*
X123180000Y-63860000D03*
D19*
X123180000Y-68040000D03*
%TD*%
D20*
%TO.N,GND*%
X131200000Y-70200000D03*
X125500000Y-74400000D03*
X133600000Y-68500000D03*
X123800000Y-70200000D03*
X125600000Y-72500000D03*
X132300000Y-70600000D03*
X121400000Y-68500000D03*
%TO.N,/CON_VBUS*%
X129940000Y-70230000D03*
X125050000Y-70240000D03*
%TD*%
D21*
%TO.N,VBUS*%
X131580000Y-73105000D02*
X130042500Y-73105000D01*
X131177500Y-72702500D02*
X131000480Y-72525480D01*
X130030000Y-73117500D02*
X130445000Y-72702500D01*
X129365000Y-75900000D02*
X129365000Y-73782500D01*
X127500000Y-73077151D02*
X128051671Y-72525480D01*
X130030000Y-73117500D02*
X129437980Y-72525480D01*
X128051671Y-72525480D02*
X131000480Y-72525480D01*
X129365000Y-73782500D02*
X130030000Y-73117500D01*
X131580000Y-73105000D02*
X131177500Y-72702500D01*
X130445000Y-72702500D02*
X131177500Y-72702500D01*
X130042500Y-73105000D02*
X130030000Y-73117500D01*
X127500000Y-73637500D02*
X127500000Y-73077151D01*
%TO.N,GND*%
X127500000Y-71362500D02*
X127500000Y-71922849D01*
X133650000Y-68450000D02*
X133600000Y-68500000D01*
X121340000Y-67465000D02*
X121340000Y-68440000D01*
X127500000Y-71922849D02*
X126922849Y-72500000D01*
X121340000Y-68440000D02*
X121400000Y-68500000D01*
X133650000Y-67480000D02*
X133650000Y-68450000D01*
X126922849Y-72500000D02*
X125600000Y-72500000D01*
X130750000Y-68955000D02*
X130750000Y-69750000D01*
X130750000Y-69750000D02*
X131200000Y-70200000D01*
X124250000Y-69750000D02*
X123800000Y-70200000D01*
X131580000Y-71320000D02*
X132300000Y-70600000D01*
X125615000Y-75900000D02*
X125615000Y-74515000D01*
X124250000Y-68955000D02*
X124250000Y-69750000D01*
X131580000Y-71555000D02*
X131580000Y-71320000D01*
X125615000Y-74515000D02*
X125500000Y-74400000D01*
%TO.N,/CON_VBUS*%
X129940000Y-70230000D02*
X129940000Y-71452500D01*
X129950000Y-68955000D02*
X129950000Y-70220000D01*
X129940000Y-71452500D02*
X130030000Y-71542500D01*
X129950000Y-70220000D02*
X129940000Y-70230000D01*
X125050000Y-68955000D02*
X125050000Y-70240000D01*
D22*
%TO.N,/CON_CC1*%
X128750000Y-67880978D02*
X130800978Y-65830000D01*
X128750000Y-68955000D02*
X128750000Y-67880978D01*
X130800978Y-65830000D02*
X133650000Y-65830000D01*
D23*
%TO.N,/CON_USB_D+*%
X126750000Y-71162500D02*
X126550000Y-71362500D01*
X127750000Y-69990134D02*
X127720134Y-70020000D01*
X127720134Y-70020000D02*
X126779866Y-70020000D01*
X126750000Y-68955000D02*
X126750000Y-71162500D01*
X126779866Y-70020000D02*
X126750000Y-69990134D01*
X126750000Y-69990134D02*
X126750000Y-68955000D01*
X127750000Y-68955000D02*
X127750000Y-69990134D01*
%TO.N,/CON_USB_D-*%
X127250000Y-68955000D02*
X127250000Y-67919866D01*
X128250000Y-68955000D02*
X128250000Y-71162500D01*
X128230067Y-67899933D02*
X128250000Y-67919866D01*
X128250000Y-71162500D02*
X128450000Y-71362500D01*
X127269933Y-67899933D02*
X128230067Y-67899933D01*
X128250000Y-67919866D02*
X128250000Y-68955000D01*
X127250000Y-67919866D02*
X127269933Y-67899933D01*
D22*
%TO.N,/CON_CC2*%
X125750000Y-67625371D02*
X123939629Y-65815000D01*
X125750000Y-68955000D02*
X125750000Y-67625371D01*
X123939629Y-65815000D02*
X121340000Y-65815000D01*
D23*
%TO.N,/JST_USB_D-*%
X128115000Y-75900000D02*
X128130076Y-75884924D01*
X128130076Y-73951147D02*
X128443723Y-73637500D01*
X128443723Y-73637500D02*
X128450000Y-73637500D01*
X128130076Y-75884924D02*
X128130076Y-73951147D01*
%TO.N,/JST_USB_D+*%
X126865000Y-75900000D02*
X126865000Y-73952500D01*
X126865000Y-73952500D02*
X126550000Y-73637500D01*
%TD*%
%TA.AperFunction,Conductor*%
%TO.N,GND*%
G36*
X135270018Y-61110000D02*
G01*
X135284851Y-61112310D01*
X135284855Y-61112310D01*
X135293724Y-61113691D01*
X135310012Y-61111561D01*
X135334589Y-61110767D01*
X135361441Y-61112527D01*
X135551701Y-61124998D01*
X135568041Y-61127149D01*
X135687690Y-61150948D01*
X135807343Y-61174749D01*
X135823257Y-61179013D01*
X135938776Y-61218227D01*
X136054292Y-61257439D01*
X136069519Y-61263746D01*
X136288342Y-61371657D01*
X136302616Y-61379898D01*
X136505478Y-61515447D01*
X136518553Y-61525480D01*
X136701993Y-61686352D01*
X136713648Y-61698007D01*
X136874520Y-61881447D01*
X136884553Y-61894522D01*
X137020102Y-62097384D01*
X137028343Y-62111658D01*
X137136254Y-62330481D01*
X137142561Y-62345708D01*
X137217788Y-62567318D01*
X137220986Y-62576740D01*
X137225251Y-62592657D01*
X137231482Y-62623980D01*
X137272851Y-62831959D01*
X137275002Y-62848299D01*
X137288077Y-63047763D01*
X137288763Y-63058236D01*
X137287733Y-63081350D01*
X137287690Y-63084854D01*
X137286309Y-63093724D01*
X137287473Y-63102626D01*
X137287473Y-63102628D01*
X137290436Y-63125283D01*
X137291500Y-63141621D01*
X137291500Y-78650633D01*
X137290000Y-78670018D01*
X137287690Y-78684851D01*
X137287690Y-78684855D01*
X137286309Y-78693724D01*
X137288136Y-78707694D01*
X137288439Y-78710010D01*
X137289233Y-78734590D01*
X137275002Y-78951701D01*
X137272851Y-78968041D01*
X137225252Y-79207340D01*
X137220986Y-79223260D01*
X137142561Y-79454292D01*
X137136254Y-79469519D01*
X137028343Y-79688342D01*
X137020102Y-79702616D01*
X136884553Y-79905478D01*
X136874520Y-79918553D01*
X136713648Y-80101993D01*
X136701993Y-80113648D01*
X136518553Y-80274520D01*
X136505478Y-80284553D01*
X136302616Y-80420102D01*
X136288342Y-80428343D01*
X136069519Y-80536254D01*
X136054292Y-80542561D01*
X136039542Y-80547568D01*
X135823257Y-80620987D01*
X135807343Y-80625251D01*
X135697562Y-80647088D01*
X135568041Y-80672851D01*
X135551701Y-80675002D01*
X135410437Y-80684262D01*
X135341763Y-80688763D01*
X135318650Y-80687733D01*
X135315146Y-80687690D01*
X135306276Y-80686309D01*
X135297374Y-80687473D01*
X135297372Y-80687473D01*
X135283915Y-80689233D01*
X135274714Y-80690436D01*
X135258379Y-80691500D01*
X132275265Y-80691500D01*
X132207144Y-80671498D01*
X132160651Y-80617842D01*
X132150547Y-80547568D01*
X132157870Y-80522988D01*
X132157115Y-80522738D01*
X132210632Y-80361389D01*
X132210632Y-80361387D01*
X132212797Y-80354861D01*
X132223500Y-80250400D01*
X132223500Y-78852817D01*
X133887514Y-78852817D01*
X133888095Y-78857837D01*
X133888095Y-78857841D01*
X133903923Y-78994631D01*
X133915415Y-79093956D01*
X133916791Y-79098820D01*
X133916792Y-79098823D01*
X133962476Y-79260266D01*
X133981510Y-79327532D01*
X133983644Y-79332108D01*
X133983646Y-79332114D01*
X134042483Y-79458290D01*
X134084099Y-79547536D01*
X134220544Y-79748307D01*
X134387332Y-79924681D01*
X134391358Y-79927759D01*
X134391359Y-79927760D01*
X134576154Y-80069047D01*
X134576158Y-80069050D01*
X134580174Y-80072120D01*
X134794109Y-80186831D01*
X135023631Y-80265862D01*
X135073757Y-80274520D01*
X135258926Y-80306504D01*
X135258932Y-80306505D01*
X135262836Y-80307179D01*
X135266797Y-80307359D01*
X135266798Y-80307359D01*
X135290506Y-80308436D01*
X135290525Y-80308436D01*
X135291925Y-80308500D01*
X135461001Y-80308500D01*
X135463509Y-80308298D01*
X135463514Y-80308298D01*
X135636924Y-80294346D01*
X135636929Y-80294345D01*
X135641965Y-80293940D01*
X135646873Y-80292734D01*
X135646876Y-80292734D01*
X135872792Y-80237244D01*
X135877706Y-80236037D01*
X135882358Y-80234062D01*
X135882362Y-80234061D01*
X136096498Y-80143165D01*
X136101156Y-80141188D01*
X136207037Y-80074511D01*
X136302288Y-80014528D01*
X136302291Y-80014526D01*
X136306567Y-80011833D01*
X136405422Y-79924681D01*
X136484858Y-79854650D01*
X136484861Y-79854647D01*
X136488655Y-79851302D01*
X136576696Y-79744119D01*
X136639526Y-79667628D01*
X136639528Y-79667625D01*
X136642734Y-79663722D01*
X136713023Y-79542954D01*
X136762299Y-79458290D01*
X136762300Y-79458288D01*
X136764841Y-79453922D01*
X136851833Y-79227298D01*
X136854311Y-79215438D01*
X136900440Y-78994631D01*
X136900440Y-78994627D01*
X136901474Y-78989680D01*
X136912486Y-78747183D01*
X136907027Y-78700000D01*
X136885167Y-78511071D01*
X136885166Y-78511067D01*
X136884585Y-78506044D01*
X136845517Y-78367978D01*
X136819866Y-78277331D01*
X136818490Y-78272468D01*
X136816356Y-78267892D01*
X136816354Y-78267886D01*
X136718038Y-78057046D01*
X136718036Y-78057042D01*
X136715901Y-78052464D01*
X136579456Y-77851693D01*
X136412668Y-77675319D01*
X136405481Y-77669824D01*
X136223846Y-77530953D01*
X136223842Y-77530950D01*
X136219826Y-77527880D01*
X136005891Y-77413169D01*
X135776369Y-77334138D01*
X135646609Y-77311725D01*
X135541074Y-77293496D01*
X135541068Y-77293495D01*
X135537164Y-77292821D01*
X135533203Y-77292641D01*
X135533202Y-77292641D01*
X135509494Y-77291564D01*
X135509475Y-77291564D01*
X135508075Y-77291500D01*
X135338999Y-77291500D01*
X135336491Y-77291702D01*
X135336486Y-77291702D01*
X135163076Y-77305654D01*
X135163071Y-77305655D01*
X135158035Y-77306060D01*
X135153127Y-77307266D01*
X135153124Y-77307266D01*
X135037007Y-77335787D01*
X134922294Y-77363963D01*
X134917642Y-77365938D01*
X134917638Y-77365939D01*
X134810252Y-77411522D01*
X134698844Y-77458812D01*
X134694560Y-77461510D01*
X134497712Y-77585472D01*
X134497709Y-77585474D01*
X134493433Y-77588167D01*
X134489639Y-77591512D01*
X134315142Y-77745350D01*
X134315139Y-77745353D01*
X134311345Y-77748698D01*
X134308135Y-77752606D01*
X134308134Y-77752607D01*
X134227567Y-77850692D01*
X134157266Y-77936278D01*
X134035159Y-78146078D01*
X133948167Y-78372702D01*
X133898526Y-78610320D01*
X133887514Y-78852817D01*
X132223500Y-78852817D01*
X132223500Y-77949600D01*
X132222118Y-77936278D01*
X132213238Y-77850692D01*
X132213237Y-77850688D01*
X132212526Y-77843834D01*
X132156550Y-77676054D01*
X132063478Y-77525652D01*
X131938303Y-77400695D01*
X131876755Y-77362756D01*
X131793968Y-77311725D01*
X131793966Y-77311724D01*
X131787738Y-77307885D01*
X131707995Y-77281436D01*
X131626389Y-77254368D01*
X131626387Y-77254368D01*
X131619861Y-77252203D01*
X131613025Y-77251503D01*
X131613022Y-77251502D01*
X131569969Y-77247091D01*
X131515400Y-77241500D01*
X130914600Y-77241500D01*
X130911354Y-77241837D01*
X130911350Y-77241837D01*
X130815692Y-77251762D01*
X130815688Y-77251763D01*
X130808834Y-77252474D01*
X130802298Y-77254655D01*
X130802296Y-77254655D01*
X130691859Y-77291500D01*
X130641054Y-77308450D01*
X130490652Y-77401522D01*
X130365695Y-77526697D01*
X130272885Y-77677262D01*
X130217203Y-77845139D01*
X130206500Y-77949600D01*
X130206500Y-80250400D01*
X130206837Y-80253646D01*
X130206837Y-80253650D01*
X130212522Y-80308436D01*
X130217474Y-80356166D01*
X130219655Y-80362702D01*
X130219655Y-80362704D01*
X130273450Y-80523946D01*
X130270779Y-80524837D01*
X130279597Y-80582226D01*
X130250729Y-80647088D01*
X130191377Y-80686047D01*
X130154712Y-80691500D01*
X124825265Y-80691500D01*
X124757144Y-80671498D01*
X124710651Y-80617842D01*
X124700547Y-80547568D01*
X124707870Y-80522988D01*
X124707115Y-80522738D01*
X124760632Y-80361389D01*
X124760632Y-80361387D01*
X124762797Y-80354861D01*
X124773500Y-80250400D01*
X124773500Y-77949600D01*
X124772118Y-77936278D01*
X124763238Y-77850692D01*
X124763237Y-77850688D01*
X124762526Y-77843834D01*
X124706550Y-77676054D01*
X124613478Y-77525652D01*
X124488303Y-77400695D01*
X124426755Y-77362756D01*
X124343968Y-77311725D01*
X124343966Y-77311724D01*
X124337738Y-77307885D01*
X124257995Y-77281436D01*
X124176389Y-77254368D01*
X124176387Y-77254368D01*
X124169861Y-77252203D01*
X124163025Y-77251503D01*
X124163022Y-77251502D01*
X124119969Y-77247091D01*
X124065400Y-77241500D01*
X123464600Y-77241500D01*
X123461354Y-77241837D01*
X123461350Y-77241837D01*
X123365692Y-77251762D01*
X123365688Y-77251763D01*
X123358834Y-77252474D01*
X123352298Y-77254655D01*
X123352296Y-77254655D01*
X123241859Y-77291500D01*
X123191054Y-77308450D01*
X123040652Y-77401522D01*
X122915695Y-77526697D01*
X122822885Y-77677262D01*
X122767203Y-77845139D01*
X122756500Y-77949600D01*
X122756500Y-80250400D01*
X122756837Y-80253646D01*
X122756837Y-80253650D01*
X122762522Y-80308436D01*
X122767474Y-80356166D01*
X122769655Y-80362702D01*
X122769655Y-80362704D01*
X122823450Y-80523946D01*
X122820779Y-80524837D01*
X122829597Y-80582226D01*
X122800729Y-80647088D01*
X122741377Y-80686047D01*
X122704712Y-80691500D01*
X119749367Y-80691500D01*
X119729982Y-80690000D01*
X119715149Y-80687690D01*
X119715145Y-80687690D01*
X119706276Y-80686309D01*
X119689988Y-80688439D01*
X119665411Y-80689233D01*
X119616804Y-80686047D01*
X119448299Y-80675002D01*
X119431959Y-80672851D01*
X119302438Y-80647088D01*
X119192657Y-80625251D01*
X119176743Y-80620987D01*
X118960458Y-80547568D01*
X118945708Y-80542561D01*
X118930481Y-80536254D01*
X118711658Y-80428343D01*
X118697384Y-80420102D01*
X118494522Y-80284553D01*
X118481447Y-80274520D01*
X118298007Y-80113648D01*
X118286352Y-80101993D01*
X118125480Y-79918553D01*
X118115447Y-79905478D01*
X117979898Y-79702616D01*
X117971657Y-79688342D01*
X117863746Y-79469519D01*
X117857439Y-79454292D01*
X117779014Y-79223260D01*
X117774748Y-79207340D01*
X117727149Y-78968041D01*
X117724998Y-78951701D01*
X117718516Y-78852817D01*
X118087514Y-78852817D01*
X118088095Y-78857837D01*
X118088095Y-78857841D01*
X118103923Y-78994631D01*
X118115415Y-79093956D01*
X118116791Y-79098820D01*
X118116792Y-79098823D01*
X118162476Y-79260266D01*
X118181510Y-79327532D01*
X118183644Y-79332108D01*
X118183646Y-79332114D01*
X118242483Y-79458290D01*
X118284099Y-79547536D01*
X118420544Y-79748307D01*
X118587332Y-79924681D01*
X118591358Y-79927759D01*
X118591359Y-79927760D01*
X118776154Y-80069047D01*
X118776158Y-80069050D01*
X118780174Y-80072120D01*
X118994109Y-80186831D01*
X119223631Y-80265862D01*
X119273757Y-80274520D01*
X119458926Y-80306504D01*
X119458932Y-80306505D01*
X119462836Y-80307179D01*
X119466797Y-80307359D01*
X119466798Y-80307359D01*
X119490506Y-80308436D01*
X119490525Y-80308436D01*
X119491925Y-80308500D01*
X119661001Y-80308500D01*
X119663509Y-80308298D01*
X119663514Y-80308298D01*
X119836924Y-80294346D01*
X119836929Y-80294345D01*
X119841965Y-80293940D01*
X119846873Y-80292734D01*
X119846876Y-80292734D01*
X120072792Y-80237244D01*
X120077706Y-80236037D01*
X120082358Y-80234062D01*
X120082362Y-80234061D01*
X120296498Y-80143165D01*
X120301156Y-80141188D01*
X120407037Y-80074511D01*
X120502288Y-80014528D01*
X120502291Y-80014526D01*
X120506567Y-80011833D01*
X120605422Y-79924681D01*
X120684858Y-79854650D01*
X120684861Y-79854647D01*
X120688655Y-79851302D01*
X120776696Y-79744119D01*
X120839526Y-79667628D01*
X120839528Y-79667625D01*
X120842734Y-79663722D01*
X120913023Y-79542954D01*
X120962299Y-79458290D01*
X120962300Y-79458288D01*
X120964841Y-79453922D01*
X121051833Y-79227298D01*
X121054311Y-79215438D01*
X121100440Y-78994631D01*
X121100440Y-78994627D01*
X121101474Y-78989680D01*
X121112486Y-78747183D01*
X121107027Y-78700000D01*
X121085167Y-78511071D01*
X121085166Y-78511067D01*
X121084585Y-78506044D01*
X121045517Y-78367978D01*
X121019866Y-78277331D01*
X121018490Y-78272468D01*
X121016356Y-78267892D01*
X121016354Y-78267886D01*
X120918038Y-78057046D01*
X120918036Y-78057042D01*
X120915901Y-78052464D01*
X120779456Y-77851693D01*
X120612668Y-77675319D01*
X120605481Y-77669824D01*
X120423846Y-77530953D01*
X120423842Y-77530950D01*
X120419826Y-77527880D01*
X120205891Y-77413169D01*
X119976369Y-77334138D01*
X119846609Y-77311725D01*
X119741074Y-77293496D01*
X119741068Y-77293495D01*
X119737164Y-77292821D01*
X119733203Y-77292641D01*
X119733202Y-77292641D01*
X119709494Y-77291564D01*
X119709475Y-77291564D01*
X119708075Y-77291500D01*
X119538999Y-77291500D01*
X119536491Y-77291702D01*
X119536486Y-77291702D01*
X119363076Y-77305654D01*
X119363071Y-77305655D01*
X119358035Y-77306060D01*
X119353127Y-77307266D01*
X119353124Y-77307266D01*
X119237007Y-77335787D01*
X119122294Y-77363963D01*
X119117642Y-77365938D01*
X119117638Y-77365939D01*
X119010252Y-77411522D01*
X118898844Y-77458812D01*
X118894560Y-77461510D01*
X118697712Y-77585472D01*
X118697709Y-77585474D01*
X118693433Y-77588167D01*
X118689639Y-77591512D01*
X118515142Y-77745350D01*
X118515139Y-77745353D01*
X118511345Y-77748698D01*
X118508135Y-77752606D01*
X118508134Y-77752607D01*
X118427567Y-77850692D01*
X118357266Y-77936278D01*
X118235159Y-78146078D01*
X118148167Y-78372702D01*
X118098526Y-78610320D01*
X118087514Y-78852817D01*
X117718516Y-78852817D01*
X117711476Y-78745407D01*
X117712650Y-78722232D01*
X117712334Y-78722204D01*
X117712770Y-78717344D01*
X117713576Y-78712552D01*
X117713729Y-78700000D01*
X117709773Y-78672376D01*
X117708500Y-78654514D01*
X117708500Y-76663984D01*
X124807001Y-76663984D01*
X124807195Y-76668920D01*
X124809430Y-76697336D01*
X124811730Y-76709931D01*
X124854107Y-76855790D01*
X124860352Y-76870221D01*
X124936911Y-76999678D01*
X124946551Y-77012104D01*
X125052896Y-77118449D01*
X125065322Y-77128089D01*
X125194779Y-77204648D01*
X125209210Y-77210893D01*
X125343605Y-77249939D01*
X125357706Y-77249899D01*
X125361000Y-77242630D01*
X125361000Y-76172115D01*
X125356525Y-76156876D01*
X125355135Y-76155671D01*
X125347452Y-76154000D01*
X124825116Y-76154000D01*
X124809877Y-76158475D01*
X124808672Y-76159865D01*
X124807001Y-76167548D01*
X124807001Y-76663984D01*
X117708500Y-76663984D01*
X117708500Y-75627885D01*
X124807000Y-75627885D01*
X124811475Y-75643124D01*
X124812865Y-75644329D01*
X124820548Y-75646000D01*
X125342885Y-75646000D01*
X125358124Y-75641525D01*
X125359329Y-75640135D01*
X125361000Y-75632452D01*
X125361000Y-74563122D01*
X125357027Y-74549591D01*
X125349129Y-74548456D01*
X125209210Y-74589107D01*
X125194779Y-74595352D01*
X125065322Y-74671911D01*
X125052896Y-74681551D01*
X124946551Y-74787896D01*
X124936911Y-74800322D01*
X124860352Y-74929779D01*
X124854107Y-74944210D01*
X124811731Y-75090065D01*
X124809430Y-75102667D01*
X124807193Y-75131084D01*
X124807000Y-75136014D01*
X124807000Y-75627885D01*
X117708500Y-75627885D01*
X117708500Y-67729294D01*
X120357709Y-67729294D01*
X120363132Y-67788315D01*
X120365743Y-67801351D01*
X120412715Y-67951243D01*
X120418921Y-67964988D01*
X120499824Y-68098574D01*
X120509131Y-68110443D01*
X120619557Y-68220869D01*
X120631426Y-68230176D01*
X120765012Y-68311079D01*
X120778757Y-68317285D01*
X120928644Y-68364256D01*
X120941694Y-68366869D01*
X121005521Y-68372734D01*
X121011309Y-68373000D01*
X121067885Y-68373000D01*
X121083124Y-68368525D01*
X121084329Y-68367135D01*
X121086000Y-68359452D01*
X121086000Y-67737115D01*
X121081525Y-67721876D01*
X121080135Y-67720671D01*
X121072452Y-67719000D01*
X120375116Y-67719000D01*
X120359877Y-67723475D01*
X120358672Y-67724865D01*
X120357709Y-67729294D01*
X117708500Y-67729294D01*
X117708500Y-65558365D01*
X120356500Y-65558365D01*
X120356501Y-66071634D01*
X120363247Y-66145062D01*
X120414528Y-66308699D01*
X120503361Y-66455381D01*
X120599239Y-66551259D01*
X120633265Y-66613571D01*
X120628200Y-66684386D01*
X120599239Y-66729449D01*
X120509131Y-66819557D01*
X120499824Y-66831426D01*
X120418921Y-66965012D01*
X120412715Y-66978757D01*
X120365744Y-67128644D01*
X120363131Y-67141694D01*
X120358087Y-67196586D01*
X120361475Y-67208124D01*
X120362865Y-67209329D01*
X120370548Y-67211000D01*
X121468000Y-67211000D01*
X121536121Y-67231002D01*
X121582614Y-67284658D01*
X121594000Y-67337000D01*
X121594000Y-68354884D01*
X121598475Y-68370123D01*
X121599865Y-68371328D01*
X121607548Y-68372999D01*
X121668705Y-68372999D01*
X121674454Y-68372736D01*
X121738315Y-68366868D01*
X121751351Y-68364257D01*
X121901243Y-68317285D01*
X121914988Y-68311079D01*
X121980228Y-68271568D01*
X122048858Y-68253389D01*
X122116422Y-68275199D01*
X122161468Y-68330075D01*
X122171500Y-68379344D01*
X122171500Y-68639769D01*
X122171800Y-68642825D01*
X122171800Y-68642832D01*
X122172530Y-68650273D01*
X122185920Y-68786833D01*
X122243084Y-68976169D01*
X122335934Y-69150796D01*
X122406291Y-69237062D01*
X122457040Y-69299287D01*
X122457043Y-69299290D01*
X122460935Y-69304062D01*
X122465682Y-69307989D01*
X122465684Y-69307991D01*
X122608575Y-69426201D01*
X122608579Y-69426203D01*
X122613325Y-69430130D01*
X122787299Y-69524198D01*
X122976232Y-69582682D01*
X122982357Y-69583326D01*
X122982358Y-69583326D01*
X123166796Y-69602711D01*
X123166798Y-69602711D01*
X123172925Y-69603355D01*
X123304582Y-69591373D01*
X123374234Y-69605118D01*
X123425399Y-69654339D01*
X123442001Y-69716854D01*
X123442001Y-69724669D01*
X123442371Y-69731490D01*
X123447895Y-69782352D01*
X123451521Y-69797604D01*
X123496676Y-69918054D01*
X123505214Y-69933649D01*
X123581715Y-70035724D01*
X123594276Y-70048285D01*
X123696351Y-70124786D01*
X123711946Y-70133324D01*
X123832394Y-70178478D01*
X123847649Y-70182105D01*
X123898514Y-70187631D01*
X123905328Y-70188000D01*
X124067855Y-70188000D01*
X124135976Y-70208002D01*
X124182469Y-70261658D01*
X124193164Y-70300828D01*
X124205635Y-70419475D01*
X124261401Y-70591107D01*
X124264704Y-70596829D01*
X124264705Y-70596830D01*
X124296689Y-70652227D01*
X124351633Y-70747393D01*
X124472387Y-70881504D01*
X124477729Y-70885385D01*
X124477731Y-70885387D01*
X124613043Y-70983697D01*
X124618385Y-70987578D01*
X124624413Y-70990262D01*
X124624415Y-70990263D01*
X124777217Y-71058295D01*
X124783248Y-71060980D01*
X124871508Y-71079740D01*
X124953311Y-71097128D01*
X124953315Y-71097128D01*
X124959768Y-71098500D01*
X125140232Y-71098500D01*
X125146685Y-71097128D01*
X125146689Y-71097128D01*
X125228492Y-71079740D01*
X125316752Y-71060980D01*
X125322783Y-71058295D01*
X125475585Y-70990263D01*
X125475587Y-70990262D01*
X125481615Y-70987578D01*
X125541440Y-70944113D01*
X125608306Y-70920255D01*
X125677458Y-70936335D01*
X125726938Y-70987249D01*
X125741500Y-71046049D01*
X125741500Y-71941502D01*
X125741693Y-71943950D01*
X125741693Y-71943958D01*
X125743518Y-71967136D01*
X125744438Y-71978831D01*
X125790855Y-72138601D01*
X125801648Y-72156851D01*
X125871509Y-72274980D01*
X125871511Y-72274983D01*
X125875547Y-72281807D01*
X125993193Y-72399453D01*
X125997002Y-72401706D01*
X126037655Y-72457996D01*
X126041506Y-72528888D01*
X126006418Y-72590609D01*
X125998724Y-72597276D01*
X125993193Y-72600547D01*
X125875547Y-72718193D01*
X125871511Y-72725017D01*
X125871509Y-72725020D01*
X125808674Y-72831268D01*
X125790855Y-72861399D01*
X125744438Y-73021169D01*
X125741500Y-73058498D01*
X125741500Y-74216502D01*
X125744438Y-74253831D01*
X125790855Y-74413601D01*
X125851455Y-74516069D01*
X125869000Y-74580206D01*
X125869000Y-77236878D01*
X125872973Y-77250409D01*
X125880871Y-77251544D01*
X126020790Y-77210893D01*
X126035221Y-77204648D01*
X126171498Y-77124055D01*
X126172573Y-77125874D01*
X126228454Y-77103936D01*
X126298076Y-77117839D01*
X126307880Y-77124140D01*
X126308193Y-77124453D01*
X126451399Y-77209145D01*
X126459010Y-77211356D01*
X126459012Y-77211357D01*
X126511231Y-77226528D01*
X126611169Y-77255562D01*
X126617574Y-77256066D01*
X126617579Y-77256067D01*
X126646042Y-77258307D01*
X126646050Y-77258307D01*
X126648498Y-77258500D01*
X127081502Y-77258500D01*
X127083950Y-77258307D01*
X127083958Y-77258307D01*
X127112421Y-77256067D01*
X127112426Y-77256066D01*
X127118831Y-77255562D01*
X127218769Y-77226528D01*
X127270988Y-77211357D01*
X127270990Y-77211356D01*
X127278601Y-77209145D01*
X127421807Y-77124453D01*
X127422864Y-77126241D01*
X127478851Y-77104255D01*
X127548475Y-77118151D01*
X127558034Y-77124294D01*
X127558193Y-77124453D01*
X127701399Y-77209145D01*
X127709010Y-77211356D01*
X127709012Y-77211357D01*
X127761231Y-77226528D01*
X127861169Y-77255562D01*
X127867574Y-77256066D01*
X127867579Y-77256067D01*
X127896042Y-77258307D01*
X127896050Y-77258307D01*
X127898498Y-77258500D01*
X128331502Y-77258500D01*
X128333950Y-77258307D01*
X128333958Y-77258307D01*
X128362421Y-77256067D01*
X128362426Y-77256066D01*
X128368831Y-77255562D01*
X128468769Y-77226528D01*
X128520988Y-77211357D01*
X128520990Y-77211356D01*
X128528601Y-77209145D01*
X128671807Y-77124453D01*
X128672864Y-77126241D01*
X128728851Y-77104255D01*
X128798475Y-77118151D01*
X128808034Y-77124294D01*
X128808193Y-77124453D01*
X128951399Y-77209145D01*
X128959010Y-77211356D01*
X128959012Y-77211357D01*
X129011231Y-77226528D01*
X129111169Y-77255562D01*
X129117574Y-77256066D01*
X129117579Y-77256067D01*
X129146042Y-77258307D01*
X129146050Y-77258307D01*
X129148498Y-77258500D01*
X129581502Y-77258500D01*
X129583950Y-77258307D01*
X129583958Y-77258307D01*
X129612421Y-77256067D01*
X129612426Y-77256066D01*
X129618831Y-77255562D01*
X129718769Y-77226528D01*
X129770988Y-77211357D01*
X129770990Y-77211356D01*
X129778601Y-77209145D01*
X129807411Y-77192107D01*
X129914980Y-77128491D01*
X129914983Y-77128489D01*
X129921807Y-77124453D01*
X130039453Y-77006807D01*
X130043489Y-76999983D01*
X130043491Y-76999980D01*
X130120108Y-76870427D01*
X130124145Y-76863601D01*
X130126415Y-76855790D01*
X130168767Y-76710008D01*
X130170562Y-76703831D01*
X130171074Y-76697336D01*
X130173307Y-76668958D01*
X130173307Y-76668950D01*
X130173500Y-76666502D01*
X130173500Y-75133498D01*
X130173307Y-75131042D01*
X130171067Y-75102579D01*
X130171066Y-75102574D01*
X130170562Y-75096169D01*
X130128503Y-74951398D01*
X130123500Y-74916246D01*
X130123500Y-74189500D01*
X130143502Y-74121379D01*
X130197158Y-74074886D01*
X130249500Y-74063500D01*
X130334572Y-74063500D01*
X130337818Y-74063163D01*
X130337822Y-74063163D01*
X130371603Y-74059658D01*
X130435982Y-74052978D01*
X130596849Y-73999308D01*
X130707991Y-73930531D01*
X130740795Y-73910232D01*
X130809247Y-73891395D01*
X130873214Y-73910117D01*
X130873401Y-73910232D01*
X131017899Y-73999302D01*
X131180243Y-74053149D01*
X131187080Y-74053849D01*
X131187082Y-74053850D01*
X131228401Y-74058083D01*
X131281268Y-74063500D01*
X131878732Y-74063500D01*
X131881978Y-74063163D01*
X131881982Y-74063163D01*
X131916083Y-74059625D01*
X131981019Y-74052887D01*
X132134726Y-74001606D01*
X132136324Y-74001073D01*
X132136326Y-74001072D01*
X132143268Y-73998756D01*
X132288713Y-73908752D01*
X132409552Y-73787702D01*
X132499302Y-73642101D01*
X132553149Y-73479757D01*
X132563500Y-73378732D01*
X132563500Y-72831268D01*
X132552887Y-72728981D01*
X132541304Y-72694263D01*
X132501073Y-72573676D01*
X132501072Y-72573674D01*
X132498756Y-72566732D01*
X132475338Y-72528888D01*
X132412606Y-72427515D01*
X132408752Y-72421287D01*
X132403570Y-72416114D01*
X132399023Y-72410377D01*
X132400830Y-72408945D01*
X132372098Y-72356425D01*
X132377108Y-72285605D01*
X132400499Y-72249147D01*
X132399448Y-72248317D01*
X132412998Y-72231160D01*
X132495004Y-72098120D01*
X132501151Y-72084939D01*
X132550491Y-71936186D01*
X132553358Y-71922810D01*
X132562672Y-71831903D01*
X132562929Y-71826874D01*
X132558525Y-71811876D01*
X132557135Y-71810671D01*
X132549452Y-71809000D01*
X131452000Y-71809000D01*
X131383879Y-71788998D01*
X131337386Y-71735342D01*
X131326000Y-71683000D01*
X131326000Y-71282885D01*
X131834000Y-71282885D01*
X131838475Y-71298124D01*
X131839865Y-71299329D01*
X131847548Y-71301000D01*
X132544885Y-71301000D01*
X132560124Y-71296525D01*
X132561329Y-71295135D01*
X132563000Y-71287452D01*
X132563000Y-71284562D01*
X132562663Y-71278047D01*
X132553106Y-71185943D01*
X132550212Y-71172544D01*
X132500619Y-71023893D01*
X132494445Y-71010714D01*
X132412212Y-70877827D01*
X132403176Y-70866426D01*
X132292571Y-70756014D01*
X132281160Y-70747002D01*
X132148120Y-70664996D01*
X132134939Y-70658849D01*
X131986186Y-70609509D01*
X131972810Y-70606642D01*
X131881903Y-70597328D01*
X131875486Y-70597000D01*
X131852115Y-70597000D01*
X131836876Y-70601475D01*
X131835671Y-70602865D01*
X131834000Y-70610548D01*
X131834000Y-71282885D01*
X131326000Y-71282885D01*
X131326000Y-70615115D01*
X131321525Y-70599876D01*
X131320135Y-70598671D01*
X131312452Y-70597000D01*
X131284562Y-70597000D01*
X131278047Y-70597337D01*
X131185943Y-70606894D01*
X131172544Y-70609788D01*
X131023893Y-70659381D01*
X131010721Y-70665552D01*
X130915645Y-70724386D01*
X130847193Y-70743223D01*
X130779423Y-70722062D01*
X130733852Y-70667621D01*
X130724949Y-70597184D01*
X130729509Y-70578305D01*
X130782325Y-70415754D01*
X130782325Y-70415753D01*
X130784365Y-70409475D01*
X130785055Y-70402911D01*
X130795785Y-70300828D01*
X130822799Y-70235171D01*
X130881021Y-70194542D01*
X130921095Y-70187999D01*
X131094669Y-70187999D01*
X131101490Y-70187629D01*
X131152352Y-70182105D01*
X131167604Y-70178479D01*
X131288054Y-70133324D01*
X131303649Y-70124786D01*
X131405724Y-70048285D01*
X131418285Y-70035724D01*
X131494786Y-69933649D01*
X131503324Y-69918054D01*
X131548478Y-69797606D01*
X131552105Y-69782351D01*
X131557631Y-69731486D01*
X131558000Y-69724672D01*
X131558000Y-69716499D01*
X131578002Y-69648378D01*
X131631658Y-69601885D01*
X131697170Y-69591189D01*
X131806796Y-69602711D01*
X131806798Y-69602711D01*
X131812925Y-69603355D01*
X131895424Y-69595847D01*
X132003749Y-69585989D01*
X132003752Y-69585988D01*
X132009888Y-69585430D01*
X132015794Y-69583692D01*
X132015798Y-69583691D01*
X132120924Y-69552751D01*
X132199619Y-69529590D01*
X132205077Y-69526737D01*
X132205081Y-69526735D01*
X132295853Y-69479280D01*
X132374890Y-69437960D01*
X132529025Y-69314032D01*
X132656154Y-69162526D01*
X132659121Y-69157128D01*
X132659125Y-69157123D01*
X132748467Y-68994608D01*
X132751433Y-68989213D01*
X132753846Y-68981608D01*
X132809373Y-68806564D01*
X132809373Y-68806563D01*
X132811235Y-68800694D01*
X132828500Y-68646773D01*
X132828500Y-68400400D01*
X132848502Y-68332279D01*
X132902158Y-68285786D01*
X132972432Y-68275682D01*
X133019772Y-68292624D01*
X133075013Y-68326079D01*
X133088757Y-68332285D01*
X133238644Y-68379256D01*
X133251694Y-68381869D01*
X133315521Y-68387734D01*
X133321309Y-68388000D01*
X133377885Y-68388000D01*
X133393124Y-68383525D01*
X133394329Y-68382135D01*
X133396000Y-68374452D01*
X133396000Y-68369884D01*
X133904000Y-68369884D01*
X133908475Y-68385123D01*
X133909865Y-68386328D01*
X133917548Y-68387999D01*
X133978705Y-68387999D01*
X133984454Y-68387736D01*
X134048315Y-68381868D01*
X134061351Y-68379257D01*
X134211243Y-68332285D01*
X134224988Y-68326079D01*
X134358574Y-68245176D01*
X134370443Y-68235869D01*
X134480869Y-68125443D01*
X134490176Y-68113574D01*
X134571079Y-67979988D01*
X134577285Y-67966243D01*
X134624256Y-67816356D01*
X134626869Y-67803306D01*
X134631913Y-67748414D01*
X134628525Y-67736876D01*
X134627135Y-67735671D01*
X134619452Y-67734000D01*
X133922115Y-67734000D01*
X133906876Y-67738475D01*
X133905671Y-67739865D01*
X133904000Y-67747548D01*
X133904000Y-68369884D01*
X133396000Y-68369884D01*
X133396000Y-67352000D01*
X133416002Y-67283879D01*
X133469658Y-67237386D01*
X133522000Y-67226000D01*
X134614884Y-67226000D01*
X134630123Y-67221525D01*
X134631328Y-67220135D01*
X134632291Y-67215706D01*
X134626868Y-67156685D01*
X134624257Y-67143649D01*
X134577285Y-66993757D01*
X134571079Y-66980012D01*
X134490176Y-66846426D01*
X134480869Y-66834557D01*
X134390761Y-66744449D01*
X134356735Y-66682137D01*
X134361800Y-66611322D01*
X134390761Y-66566259D01*
X134486639Y-66470381D01*
X134575472Y-66323699D01*
X134582445Y-66301450D01*
X134624752Y-66166446D01*
X134626753Y-66160062D01*
X134633500Y-66086635D01*
X134633499Y-65573366D01*
X134626753Y-65499938D01*
X134620052Y-65478554D01*
X134577744Y-65343550D01*
X134577743Y-65343548D01*
X134575472Y-65336301D01*
X134486639Y-65189619D01*
X134365381Y-65068361D01*
X134218699Y-64979528D01*
X134211452Y-64977257D01*
X134211450Y-64977256D01*
X134145164Y-64956483D01*
X134055062Y-64928247D01*
X133981635Y-64921500D01*
X133978737Y-64921500D01*
X133649140Y-64921501D01*
X133318366Y-64921501D01*
X133315508Y-64921764D01*
X133315499Y-64921764D01*
X133279996Y-64925026D01*
X133244938Y-64928247D01*
X133238560Y-64930246D01*
X133238559Y-64930246D01*
X133088550Y-64977256D01*
X133088548Y-64977257D01*
X133081301Y-64979528D01*
X132934619Y-65068361D01*
X132868385Y-65134595D01*
X132806073Y-65168621D01*
X132779290Y-65171500D01*
X132529283Y-65171500D01*
X132461162Y-65151498D01*
X132414669Y-65097842D01*
X132404565Y-65027568D01*
X132434059Y-64962988D01*
X132450331Y-64947304D01*
X132501079Y-64906501D01*
X132529025Y-64884032D01*
X132656154Y-64732526D01*
X132659121Y-64727128D01*
X132659125Y-64727123D01*
X132748467Y-64564608D01*
X132751433Y-64559213D01*
X132753846Y-64551608D01*
X132809373Y-64376564D01*
X132809373Y-64376563D01*
X132811235Y-64370694D01*
X132828500Y-64216773D01*
X132828500Y-63510231D01*
X132827814Y-63503227D01*
X132820368Y-63427298D01*
X132814080Y-63363167D01*
X132756916Y-63173831D01*
X132692572Y-63052817D01*
X133887514Y-63052817D01*
X133888095Y-63057837D01*
X133888095Y-63057841D01*
X133903923Y-63194631D01*
X133915415Y-63293956D01*
X133916791Y-63298820D01*
X133916792Y-63298823D01*
X133962476Y-63460266D01*
X133981510Y-63527532D01*
X133983644Y-63532108D01*
X133983646Y-63532114D01*
X134040446Y-63653922D01*
X134084099Y-63747536D01*
X134220544Y-63948307D01*
X134387332Y-64124681D01*
X134391358Y-64127759D01*
X134391359Y-64127760D01*
X134576154Y-64269047D01*
X134576158Y-64269050D01*
X134580174Y-64272120D01*
X134794109Y-64386831D01*
X135023631Y-64465862D01*
X135122978Y-64483022D01*
X135258926Y-64506504D01*
X135258932Y-64506505D01*
X135262836Y-64507179D01*
X135266797Y-64507359D01*
X135266798Y-64507359D01*
X135290506Y-64508436D01*
X135290525Y-64508436D01*
X135291925Y-64508500D01*
X135461001Y-64508500D01*
X135463509Y-64508298D01*
X135463514Y-64508298D01*
X135636924Y-64494346D01*
X135636929Y-64494345D01*
X135641965Y-64493940D01*
X135646873Y-64492734D01*
X135646876Y-64492734D01*
X135872792Y-64437244D01*
X135877706Y-64436037D01*
X135882358Y-64434062D01*
X135882362Y-64434061D01*
X136050392Y-64362736D01*
X136101156Y-64341188D01*
X136207037Y-64274511D01*
X136302288Y-64214528D01*
X136302291Y-64214526D01*
X136306567Y-64211833D01*
X136405422Y-64124681D01*
X136484858Y-64054650D01*
X136484861Y-64054647D01*
X136488655Y-64051302D01*
X136642734Y-63863722D01*
X136764841Y-63653922D01*
X136818815Y-63513313D01*
X136850020Y-63432022D01*
X136850021Y-63432018D01*
X136851833Y-63427298D01*
X136866848Y-63355425D01*
X136900440Y-63194631D01*
X136900440Y-63194627D01*
X136901474Y-63189680D01*
X136912486Y-62947183D01*
X136901045Y-62848299D01*
X136885167Y-62711071D01*
X136885166Y-62711067D01*
X136884585Y-62706044D01*
X136845517Y-62567978D01*
X136819866Y-62477331D01*
X136818490Y-62472468D01*
X136816356Y-62467892D01*
X136816354Y-62467886D01*
X136718038Y-62257046D01*
X136718036Y-62257042D01*
X136715901Y-62252464D01*
X136579456Y-62051693D01*
X136412668Y-61875319D01*
X136408641Y-61872240D01*
X136223846Y-61730953D01*
X136223842Y-61730950D01*
X136219826Y-61727880D01*
X136005891Y-61613169D01*
X135776369Y-61534138D01*
X135668157Y-61515447D01*
X135541074Y-61493496D01*
X135541068Y-61493495D01*
X135537164Y-61492821D01*
X135533203Y-61492641D01*
X135533202Y-61492641D01*
X135509494Y-61491564D01*
X135509475Y-61491564D01*
X135508075Y-61491500D01*
X135338999Y-61491500D01*
X135336491Y-61491702D01*
X135336486Y-61491702D01*
X135163076Y-61505654D01*
X135163071Y-61505655D01*
X135158035Y-61506060D01*
X135153127Y-61507266D01*
X135153124Y-61507266D01*
X135037007Y-61535787D01*
X134922294Y-61563963D01*
X134917642Y-61565938D01*
X134917638Y-61565939D01*
X134852271Y-61593686D01*
X134698844Y-61658812D01*
X134646465Y-61691797D01*
X134497712Y-61785472D01*
X134497709Y-61785474D01*
X134493433Y-61788167D01*
X134489639Y-61791512D01*
X134315142Y-61945350D01*
X134315139Y-61945353D01*
X134311345Y-61948698D01*
X134308135Y-61952606D01*
X134308134Y-61952607D01*
X134189214Y-62097384D01*
X134157266Y-62136278D01*
X134096213Y-62241178D01*
X134044237Y-62330481D01*
X134035159Y-62346078D01*
X134033346Y-62350801D01*
X133950234Y-62567318D01*
X133948167Y-62572702D01*
X133947133Y-62577652D01*
X133947132Y-62577655D01*
X133903796Y-62785095D01*
X133898526Y-62810320D01*
X133887514Y-63052817D01*
X132692572Y-63052817D01*
X132664066Y-62999204D01*
X132593709Y-62912938D01*
X132542960Y-62850713D01*
X132542957Y-62850710D01*
X132539065Y-62845938D01*
X132531956Y-62840057D01*
X132391425Y-62723799D01*
X132391421Y-62723797D01*
X132386675Y-62719870D01*
X132212701Y-62625802D01*
X132023768Y-62567318D01*
X132017643Y-62566674D01*
X132017642Y-62566674D01*
X131833204Y-62547289D01*
X131833202Y-62547289D01*
X131827075Y-62546645D01*
X131744576Y-62554153D01*
X131636251Y-62564011D01*
X131636248Y-62564012D01*
X131630112Y-62564570D01*
X131624206Y-62566308D01*
X131624202Y-62566309D01*
X131534669Y-62592660D01*
X131440381Y-62620410D01*
X131434923Y-62623263D01*
X131434919Y-62623265D01*
X131344147Y-62670720D01*
X131265110Y-62712040D01*
X131110975Y-62835968D01*
X130983846Y-62987474D01*
X130980879Y-62992872D01*
X130980875Y-62992877D01*
X130928644Y-63087886D01*
X130888567Y-63160787D01*
X130886706Y-63166654D01*
X130886705Y-63166656D01*
X130877831Y-63194631D01*
X130828765Y-63349306D01*
X130811500Y-63503227D01*
X130811500Y-64209769D01*
X130811800Y-64212825D01*
X130811800Y-64212832D01*
X130812530Y-64220273D01*
X130825920Y-64356833D01*
X130883084Y-64546169D01*
X130975934Y-64720796D01*
X131046291Y-64807062D01*
X131097040Y-64869287D01*
X131097043Y-64869290D01*
X131100935Y-64874062D01*
X131190814Y-64948416D01*
X131230551Y-65007249D01*
X131232172Y-65078227D01*
X131195163Y-65138815D01*
X131131273Y-65169775D01*
X131110497Y-65171500D01*
X130883037Y-65171500D01*
X130871181Y-65170941D01*
X130863441Y-65169211D01*
X130855515Y-65169460D01*
X130855514Y-65169460D01*
X130792589Y-65171438D01*
X130788631Y-65171500D01*
X130759546Y-65171500D01*
X130755615Y-65171997D01*
X130755608Y-65171997D01*
X130755157Y-65172054D01*
X130743321Y-65172986D01*
X130697147Y-65174438D01*
X130676557Y-65180420D01*
X130657196Y-65184430D01*
X130650208Y-65185312D01*
X130643774Y-65186125D01*
X130643773Y-65186125D01*
X130635914Y-65187118D01*
X130628549Y-65190034D01*
X130628545Y-65190035D01*
X130592957Y-65204126D01*
X130581747Y-65207965D01*
X130537378Y-65220855D01*
X130518913Y-65231775D01*
X130501173Y-65240466D01*
X130481222Y-65248365D01*
X130461189Y-65262920D01*
X130443852Y-65275516D01*
X130433930Y-65282033D01*
X130401001Y-65301507D01*
X130400997Y-65301510D01*
X130394171Y-65305547D01*
X130379007Y-65320711D01*
X130363974Y-65333551D01*
X130346621Y-65346159D01*
X130317176Y-65381752D01*
X130309186Y-65390532D01*
X128463501Y-67236217D01*
X128401189Y-67270243D01*
X128343075Y-67269164D01*
X128310799Y-67260877D01*
X128290277Y-67260877D01*
X128270566Y-67259326D01*
X128258128Y-67257356D01*
X128250299Y-67256116D01*
X128242407Y-67256862D01*
X128205847Y-67260318D01*
X128193989Y-67260877D01*
X127349429Y-67260877D01*
X127338099Y-67260343D01*
X127330552Y-67258656D01*
X127322626Y-67258905D01*
X127322625Y-67258905D01*
X127261856Y-67260815D01*
X127257898Y-67260877D01*
X127229729Y-67260877D01*
X127225814Y-67261372D01*
X127225810Y-67261372D01*
X127225700Y-67261386D01*
X127225644Y-67261393D01*
X127213802Y-67262326D01*
X127185682Y-67263209D01*
X127177092Y-67263479D01*
X127177091Y-67263479D01*
X127169169Y-67263728D01*
X127149458Y-67269455D01*
X127130097Y-67273464D01*
X127117603Y-67275042D01*
X127117602Y-67275042D01*
X127109743Y-67276035D01*
X127102376Y-67278952D01*
X127102375Y-67278952D01*
X127068237Y-67292468D01*
X127057007Y-67296313D01*
X127021729Y-67306562D01*
X127021727Y-67306563D01*
X127014116Y-67308774D01*
X126996441Y-67319228D01*
X126978695Y-67327921D01*
X126959619Y-67335473D01*
X126948823Y-67343317D01*
X126923493Y-67361720D01*
X126913575Y-67368235D01*
X126875139Y-67390966D01*
X126860632Y-67405473D01*
X126845598Y-67418314D01*
X126828992Y-67430379D01*
X126823939Y-67436487D01*
X126801848Y-67463191D01*
X126796610Y-67469132D01*
X126792352Y-67473666D01*
X126789600Y-67476505D01*
X126769691Y-67496414D01*
X126767160Y-67499678D01*
X126759453Y-67508701D01*
X126728884Y-67541253D01*
X126725065Y-67548199D01*
X126725064Y-67548201D01*
X126718997Y-67559237D01*
X126708143Y-67575761D01*
X126701800Y-67583939D01*
X126695566Y-67591975D01*
X126692418Y-67599250D01*
X126677833Y-67632953D01*
X126672613Y-67643610D01*
X126665691Y-67656200D01*
X126615347Y-67706258D01*
X126558645Y-67720645D01*
X126558681Y-67721316D01*
X126555286Y-67721500D01*
X126551866Y-67721500D01*
X126548462Y-67721870D01*
X126548458Y-67721870D01*
X126548096Y-67721909D01*
X126548012Y-67721894D01*
X126545074Y-67722053D01*
X126545036Y-67721360D01*
X126478215Y-67709375D01*
X126426204Y-67661049D01*
X126408500Y-67596645D01*
X126408500Y-67583939D01*
X126407944Y-67579539D01*
X126407012Y-67567701D01*
X126405811Y-67529465D01*
X126405562Y-67521540D01*
X126399580Y-67500950D01*
X126395570Y-67481587D01*
X126393875Y-67468167D01*
X126393875Y-67468166D01*
X126392882Y-67460307D01*
X126389966Y-67452942D01*
X126389965Y-67452938D01*
X126375874Y-67417350D01*
X126372035Y-67406140D01*
X126359145Y-67361771D01*
X126348229Y-67343314D01*
X126339534Y-67325564D01*
X126331635Y-67305615D01*
X126314023Y-67281374D01*
X126304477Y-67268235D01*
X126297960Y-67258314D01*
X126274452Y-67218564D01*
X126259291Y-67203403D01*
X126246449Y-67188368D01*
X126233841Y-67171014D01*
X126227737Y-67165964D01*
X126227735Y-67165962D01*
X126198237Y-67141559D01*
X126189459Y-67133570D01*
X124463283Y-65407394D01*
X124455293Y-65398614D01*
X124451045Y-65391920D01*
X124399369Y-65343394D01*
X124396559Y-65340671D01*
X124375962Y-65320073D01*
X124372455Y-65317353D01*
X124363433Y-65309647D01*
X124335542Y-65283456D01*
X124329762Y-65278028D01*
X124322810Y-65274206D01*
X124310971Y-65267697D01*
X124294447Y-65256843D01*
X124283761Y-65248555D01*
X124277497Y-65243696D01*
X124270225Y-65240549D01*
X124270223Y-65240548D01*
X124235094Y-65225346D01*
X124224434Y-65220124D01*
X124190913Y-65201695D01*
X124190911Y-65201694D01*
X124183966Y-65197876D01*
X124163188Y-65192541D01*
X124144498Y-65186142D01*
X124124805Y-65177620D01*
X124079181Y-65170394D01*
X124067558Y-65167987D01*
X124039557Y-65160798D01*
X124022817Y-65156500D01*
X124001370Y-65156500D01*
X123981660Y-65154949D01*
X123960477Y-65151594D01*
X123920503Y-65155373D01*
X123850804Y-65141871D01*
X123799467Y-65092829D01*
X123782794Y-65023818D01*
X123806078Y-64956748D01*
X123829693Y-64931736D01*
X123831547Y-64930246D01*
X123889025Y-64884032D01*
X124016154Y-64732526D01*
X124019121Y-64727128D01*
X124019125Y-64727123D01*
X124108467Y-64564608D01*
X124111433Y-64559213D01*
X124113846Y-64551608D01*
X124169373Y-64376564D01*
X124169373Y-64376563D01*
X124171235Y-64370694D01*
X124188500Y-64216773D01*
X124188500Y-63510231D01*
X124187814Y-63503227D01*
X124180368Y-63427298D01*
X124174080Y-63363167D01*
X124116916Y-63173831D01*
X124024066Y-62999204D01*
X123953709Y-62912938D01*
X123902960Y-62850713D01*
X123902957Y-62850710D01*
X123899065Y-62845938D01*
X123891956Y-62840057D01*
X123751425Y-62723799D01*
X123751421Y-62723797D01*
X123746675Y-62719870D01*
X123572701Y-62625802D01*
X123383768Y-62567318D01*
X123377643Y-62566674D01*
X123377642Y-62566674D01*
X123193204Y-62547289D01*
X123193202Y-62547289D01*
X123187075Y-62546645D01*
X123104576Y-62554153D01*
X122996251Y-62564011D01*
X122996248Y-62564012D01*
X122990112Y-62564570D01*
X122984206Y-62566308D01*
X122984202Y-62566309D01*
X122894669Y-62592660D01*
X122800381Y-62620410D01*
X122794923Y-62623263D01*
X122794919Y-62623265D01*
X122704147Y-62670720D01*
X122625110Y-62712040D01*
X122470975Y-62835968D01*
X122343846Y-62987474D01*
X122340879Y-62992872D01*
X122340875Y-62992877D01*
X122288644Y-63087886D01*
X122248567Y-63160787D01*
X122246706Y-63166654D01*
X122246705Y-63166656D01*
X122237831Y-63194631D01*
X122188765Y-63349306D01*
X122171500Y-63503227D01*
X122171500Y-64209769D01*
X122171800Y-64212825D01*
X122171800Y-64212832D01*
X122172530Y-64220273D01*
X122185920Y-64356833D01*
X122243084Y-64546169D01*
X122335934Y-64720796D01*
X122406291Y-64807062D01*
X122457040Y-64869287D01*
X122457043Y-64869290D01*
X122460935Y-64874062D01*
X122465682Y-64877989D01*
X122465685Y-64877992D01*
X122532681Y-64933416D01*
X122572419Y-64992249D01*
X122574040Y-65063227D01*
X122537031Y-65123815D01*
X122473141Y-65154775D01*
X122452365Y-65156500D01*
X122210710Y-65156500D01*
X122142589Y-65136498D01*
X122121615Y-65119595D01*
X122055381Y-65053361D01*
X121908699Y-64964528D01*
X121901452Y-64962257D01*
X121901450Y-64962256D01*
X121804060Y-64931736D01*
X121745062Y-64913247D01*
X121671635Y-64906500D01*
X121668737Y-64906500D01*
X121339140Y-64906501D01*
X121008366Y-64906501D01*
X121005508Y-64906764D01*
X121005499Y-64906764D01*
X120969996Y-64910026D01*
X120934938Y-64913247D01*
X120928560Y-64915246D01*
X120928559Y-64915246D01*
X120778550Y-64962256D01*
X120778548Y-64962257D01*
X120771301Y-64964528D01*
X120624619Y-65053361D01*
X120503361Y-65174619D01*
X120414528Y-65321301D01*
X120412257Y-65328548D01*
X120412256Y-65328550D01*
X120406738Y-65346159D01*
X120363247Y-65484938D01*
X120356500Y-65558365D01*
X117708500Y-65558365D01*
X117708500Y-63153250D01*
X117710246Y-63132345D01*
X117712770Y-63117344D01*
X117712770Y-63117341D01*
X117713576Y-63112552D01*
X117713729Y-63100000D01*
X117712003Y-63087947D01*
X117711001Y-63061845D01*
X117711593Y-63052817D01*
X118087514Y-63052817D01*
X118088095Y-63057837D01*
X118088095Y-63057841D01*
X118103923Y-63194631D01*
X118115415Y-63293956D01*
X118116791Y-63298820D01*
X118116792Y-63298823D01*
X118162476Y-63460266D01*
X118181510Y-63527532D01*
X118183644Y-63532108D01*
X118183646Y-63532114D01*
X118240446Y-63653922D01*
X118284099Y-63747536D01*
X118420544Y-63948307D01*
X118587332Y-64124681D01*
X118591358Y-64127759D01*
X118591359Y-64127760D01*
X118776154Y-64269047D01*
X118776158Y-64269050D01*
X118780174Y-64272120D01*
X118994109Y-64386831D01*
X119223631Y-64465862D01*
X119322978Y-64483022D01*
X119458926Y-64506504D01*
X119458932Y-64506505D01*
X119462836Y-64507179D01*
X119466797Y-64507359D01*
X119466798Y-64507359D01*
X119490506Y-64508436D01*
X119490525Y-64508436D01*
X119491925Y-64508500D01*
X119661001Y-64508500D01*
X119663509Y-64508298D01*
X119663514Y-64508298D01*
X119836924Y-64494346D01*
X119836929Y-64494345D01*
X119841965Y-64493940D01*
X119846873Y-64492734D01*
X119846876Y-64492734D01*
X120072792Y-64437244D01*
X120077706Y-64436037D01*
X120082358Y-64434062D01*
X120082362Y-64434061D01*
X120250392Y-64362736D01*
X120301156Y-64341188D01*
X120407037Y-64274511D01*
X120502288Y-64214528D01*
X120502291Y-64214526D01*
X120506567Y-64211833D01*
X120605422Y-64124681D01*
X120684858Y-64054650D01*
X120684861Y-64054647D01*
X120688655Y-64051302D01*
X120842734Y-63863722D01*
X120964841Y-63653922D01*
X121018815Y-63513313D01*
X121050020Y-63432022D01*
X121050021Y-63432018D01*
X121051833Y-63427298D01*
X121066848Y-63355425D01*
X121100440Y-63194631D01*
X121100440Y-63194627D01*
X121101474Y-63189680D01*
X121112486Y-62947183D01*
X121101045Y-62848299D01*
X121085167Y-62711071D01*
X121085166Y-62711067D01*
X121084585Y-62706044D01*
X121045517Y-62567978D01*
X121019866Y-62477331D01*
X121018490Y-62472468D01*
X121016356Y-62467892D01*
X121016354Y-62467886D01*
X120918038Y-62257046D01*
X120918036Y-62257042D01*
X120915901Y-62252464D01*
X120779456Y-62051693D01*
X120612668Y-61875319D01*
X120608641Y-61872240D01*
X120423846Y-61730953D01*
X120423842Y-61730950D01*
X120419826Y-61727880D01*
X120205891Y-61613169D01*
X119976369Y-61534138D01*
X119868157Y-61515447D01*
X119741074Y-61493496D01*
X119741068Y-61493495D01*
X119737164Y-61492821D01*
X119733203Y-61492641D01*
X119733202Y-61492641D01*
X119709494Y-61491564D01*
X119709475Y-61491564D01*
X119708075Y-61491500D01*
X119538999Y-61491500D01*
X119536491Y-61491702D01*
X119536486Y-61491702D01*
X119363076Y-61505654D01*
X119363071Y-61505655D01*
X119358035Y-61506060D01*
X119353127Y-61507266D01*
X119353124Y-61507266D01*
X119237007Y-61535787D01*
X119122294Y-61563963D01*
X119117642Y-61565938D01*
X119117638Y-61565939D01*
X119052271Y-61593686D01*
X118898844Y-61658812D01*
X118846465Y-61691797D01*
X118697712Y-61785472D01*
X118697709Y-61785474D01*
X118693433Y-61788167D01*
X118689639Y-61791512D01*
X118515142Y-61945350D01*
X118515139Y-61945353D01*
X118511345Y-61948698D01*
X118508135Y-61952606D01*
X118508134Y-61952607D01*
X118389214Y-62097384D01*
X118357266Y-62136278D01*
X118296213Y-62241178D01*
X118244237Y-62330481D01*
X118235159Y-62346078D01*
X118233346Y-62350801D01*
X118150234Y-62567318D01*
X118148167Y-62572702D01*
X118147133Y-62577652D01*
X118147132Y-62577655D01*
X118103796Y-62785095D01*
X118098526Y-62810320D01*
X118087514Y-63052817D01*
X117711593Y-63052817D01*
X117724998Y-62848299D01*
X117727149Y-62831959D01*
X117768518Y-62623980D01*
X117774749Y-62592657D01*
X117779014Y-62576740D01*
X117782213Y-62567318D01*
X117857439Y-62345708D01*
X117863746Y-62330481D01*
X117971657Y-62111658D01*
X117979898Y-62097384D01*
X118115447Y-61894522D01*
X118125480Y-61881447D01*
X118286352Y-61698007D01*
X118298007Y-61686352D01*
X118481447Y-61525480D01*
X118494522Y-61515447D01*
X118697384Y-61379898D01*
X118711658Y-61371657D01*
X118930481Y-61263746D01*
X118945708Y-61257439D01*
X119061224Y-61218227D01*
X119176743Y-61179013D01*
X119192657Y-61174749D01*
X119312310Y-61150948D01*
X119431959Y-61127149D01*
X119448299Y-61124998D01*
X119589563Y-61115738D01*
X119658237Y-61111237D01*
X119681350Y-61112267D01*
X119684854Y-61112310D01*
X119693724Y-61113691D01*
X119702626Y-61112527D01*
X119702628Y-61112527D01*
X119719449Y-61110327D01*
X119725286Y-61109564D01*
X119741621Y-61108500D01*
X135250633Y-61108500D01*
X135270018Y-61110000D01*
G37*
%TD.AperFunction*%
%TD*%
M02*
