%TF.GenerationSoftware,KiCad,Pcbnew,(6.0.5)*%
%TF.CreationDate,2022-07-11T10:01:00-06:00*%
%TF.ProjectId,usbc-daughter-board,75736263-2d64-4617-9567-687465722d62,1.0*%
%TF.SameCoordinates,Original*%
%TF.FileFunction,Copper,L2,Bot*%
%TF.FilePolarity,Positive*%
%FSLAX46Y46*%
G04 Gerber Fmt 4.6, Leading zero omitted, Abs format (unit mm)*
G04 Created by KiCad (PCBNEW (6.0.5)) date 2022-07-11 10:01:00*
%MOMM*%
%LPD*%
G01*
G04 APERTURE LIST*
%TA.AperFunction,ComponentPad*%
%ADD10C,4.400000*%
%TD*%
%TA.AperFunction,ComponentPad*%
%ADD11O,1.050000X2.100000*%
%TD*%
%TA.AperFunction,ComponentPad*%
%ADD12O,1.000000X2.000000*%
%TD*%
%TA.AperFunction,ViaPad*%
%ADD13C,0.700000*%
%TD*%
%TA.AperFunction,Conductor*%
%ADD14C,0.500000*%
%TD*%
G04 APERTURE END LIST*
D10*
%TO.P,H3,1,1*%
%TO.N,unconnected-(H3-Pad1)*%
X16600000Y-27850000D03*
%TD*%
%TO.P,H1,1,1*%
%TO.N,GNDPWR*%
X16600000Y-16450000D03*
%TD*%
%TO.P,H4,1,1*%
%TO.N,unconnected-(H4-Pad1)*%
X32000000Y-27850000D03*
%TD*%
%TO.P,H2,1,1*%
%TO.N,unconnected-(H2-Pad1)*%
X32000000Y-16450000D03*
%TD*%
D11*
%TO.P,J1,S1,SHELL_GND*%
%TO.N,GNDPWR*%
X28620000Y-20730000D03*
D12*
%TO.P,J1,S2,SHELL_GND*%
X28620000Y-16550000D03*
%TO.P,J1,S3,SHELL_GND*%
X19980000Y-16550000D03*
D11*
%TO.P,J1,S4,SHELL_GND*%
X19980000Y-20730000D03*
%TD*%
D13*
%TO.N,GNDPWR*%
X20800000Y-22500000D03*
X27800000Y-22500000D03*
%TO.N,/CON_VBUS*%
X21900000Y-22500000D03*
X26700000Y-22500000D03*
%TD*%
D14*
%TO.N,/CON_VBUS*%
X26700000Y-22500000D02*
X21900000Y-22500000D01*
%TD*%
%TA.AperFunction,Conductor*%
%TO.N,GNDPWR*%
G36*
X29973455Y-14428502D02*
G01*
X30019948Y-14482158D01*
X30030052Y-14552432D01*
X30000558Y-14617012D01*
X29993738Y-14624281D01*
X29983513Y-14634347D01*
X29779991Y-14889751D01*
X29608626Y-15167757D01*
X29607037Y-15171204D01*
X29545687Y-15304282D01*
X29499003Y-15357772D01*
X29430811Y-15377530D01*
X29362762Y-15357285D01*
X29341854Y-15340314D01*
X29333958Y-15332362D01*
X29191144Y-15214216D01*
X29180973Y-15207356D01*
X29017924Y-15119196D01*
X29006619Y-15114444D01*
X28891308Y-15078750D01*
X28877205Y-15078544D01*
X28874000Y-15085299D01*
X28874000Y-18007924D01*
X28877973Y-18021455D01*
X28885768Y-18022575D01*
X28993521Y-17990862D01*
X29004889Y-17986269D01*
X29169154Y-17900393D01*
X29179415Y-17893679D01*
X29323873Y-17777532D01*
X29332632Y-17768954D01*
X29394836Y-17694823D01*
X29453946Y-17655496D01*
X29524934Y-17654370D01*
X29585261Y-17691801D01*
X29599979Y-17711959D01*
X29747802Y-17963414D01*
X29750103Y-17966429D01*
X29943631Y-18220012D01*
X29943636Y-18220017D01*
X29945931Y-18223025D01*
X30007931Y-18286670D01*
X30168852Y-18451859D01*
X30173814Y-18456953D01*
X30273811Y-18537496D01*
X30425196Y-18659431D01*
X30425201Y-18659435D01*
X30428149Y-18661809D01*
X30705253Y-18834627D01*
X31001112Y-18972903D01*
X31311440Y-19074634D01*
X31631742Y-19138346D01*
X31635514Y-19138633D01*
X31635522Y-19138634D01*
X31953602Y-19162829D01*
X31953607Y-19162829D01*
X31957379Y-19163116D01*
X32283633Y-19148586D01*
X32343425Y-19138634D01*
X32602037Y-19095590D01*
X32602042Y-19095589D01*
X32605778Y-19094967D01*
X32919149Y-19003034D01*
X32922616Y-19001544D01*
X32922620Y-19001543D01*
X33215721Y-18875616D01*
X33215723Y-18875615D01*
X33219205Y-18874119D01*
X33501601Y-18710091D01*
X33730226Y-18537496D01*
X33759221Y-18515607D01*
X33759222Y-18515606D01*
X33762245Y-18513324D01*
X33810749Y-18466566D01*
X33828454Y-18449499D01*
X33891379Y-18416622D01*
X33962090Y-18422984D01*
X34018136Y-18466566D01*
X34041901Y-18540217D01*
X34041740Y-22252517D01*
X34041589Y-25756479D01*
X34021584Y-25824599D01*
X33967926Y-25871090D01*
X33897652Y-25881191D01*
X33833072Y-25851695D01*
X33826261Y-25845336D01*
X33807742Y-25826720D01*
X33805070Y-25824034D01*
X33548603Y-25621852D01*
X33269705Y-25451945D01*
X33266261Y-25450379D01*
X33266257Y-25450377D01*
X33155667Y-25400095D01*
X32972414Y-25316775D01*
X32661037Y-25218300D01*
X32443492Y-25177390D01*
X32343809Y-25158645D01*
X32343807Y-25158645D01*
X32340086Y-25157945D01*
X32014208Y-25136586D01*
X32010428Y-25136794D01*
X32010427Y-25136794D01*
X31912897Y-25142162D01*
X31688124Y-25154532D01*
X31684397Y-25155193D01*
X31684393Y-25155193D01*
X31527340Y-25183027D01*
X31366557Y-25211522D01*
X31362941Y-25212624D01*
X31362933Y-25212626D01*
X31057789Y-25305627D01*
X31054167Y-25306731D01*
X30755477Y-25438781D01*
X30730041Y-25453914D01*
X30478074Y-25603817D01*
X30478068Y-25603821D01*
X30474814Y-25605757D01*
X30216244Y-25805243D01*
X29983513Y-26034347D01*
X29981149Y-26037314D01*
X29981146Y-26037317D01*
X29964220Y-26058558D01*
X29779991Y-26289751D01*
X29608626Y-26567757D01*
X29471902Y-26864336D01*
X29470741Y-26867940D01*
X29470741Y-26867941D01*
X29462196Y-26894477D01*
X29371797Y-27175192D01*
X29371079Y-27178903D01*
X29371078Y-27178907D01*
X29310482Y-27492105D01*
X29310481Y-27492114D01*
X29309763Y-27495824D01*
X29309496Y-27499600D01*
X29309495Y-27499605D01*
X29286966Y-27817796D01*
X29286698Y-27821585D01*
X29302936Y-28147759D01*
X29303577Y-28151490D01*
X29303578Y-28151498D01*
X29318109Y-28236060D01*
X29358241Y-28469619D01*
X29359329Y-28473258D01*
X29359330Y-28473261D01*
X29363371Y-28486771D01*
X29451814Y-28782504D01*
X29582297Y-29081881D01*
X29584220Y-29085152D01*
X29584222Y-29085156D01*
X29626584Y-29157215D01*
X29747802Y-29363414D01*
X29750103Y-29366429D01*
X29943631Y-29620012D01*
X29943636Y-29620017D01*
X29945931Y-29623025D01*
X29948569Y-29625733D01*
X29948582Y-29625748D01*
X29999074Y-29677579D01*
X30032281Y-29740331D01*
X30026289Y-29811074D01*
X29983002Y-29867348D01*
X29916163Y-29891286D01*
X29908820Y-29891500D01*
X18695661Y-29891500D01*
X18627540Y-29871498D01*
X18581047Y-29817842D01*
X18570943Y-29747568D01*
X18597949Y-29685950D01*
X18801155Y-29436351D01*
X18801158Y-29436347D01*
X18803549Y-29433410D01*
X18977815Y-29157215D01*
X19006954Y-29095711D01*
X19116009Y-28865522D01*
X19117638Y-28862084D01*
X19118840Y-28858482D01*
X19219790Y-28555897D01*
X19219792Y-28555891D01*
X19220992Y-28552293D01*
X19286381Y-28232329D01*
X19291440Y-28170139D01*
X19312674Y-27909061D01*
X19312856Y-27906826D01*
X19313451Y-27850000D01*
X19311510Y-27817796D01*
X19294026Y-27527793D01*
X19294026Y-27527789D01*
X19293798Y-27524015D01*
X19288650Y-27495824D01*
X19235805Y-27206473D01*
X19235804Y-27206469D01*
X19235125Y-27202751D01*
X19227722Y-27178907D01*
X19139404Y-26894477D01*
X19138282Y-26890863D01*
X19004670Y-26592869D01*
X18836226Y-26313084D01*
X18833899Y-26310100D01*
X18833894Y-26310093D01*
X18637726Y-26058558D01*
X18637724Y-26058556D01*
X18635390Y-26055563D01*
X18405070Y-25824034D01*
X18148603Y-25621852D01*
X17869705Y-25451945D01*
X17866261Y-25450379D01*
X17866257Y-25450377D01*
X17755667Y-25400095D01*
X17572414Y-25316775D01*
X17261037Y-25218300D01*
X17043492Y-25177390D01*
X16943809Y-25158645D01*
X16943807Y-25158645D01*
X16940086Y-25157945D01*
X16614208Y-25136586D01*
X16610428Y-25136794D01*
X16610427Y-25136794D01*
X16512897Y-25142162D01*
X16288124Y-25154532D01*
X16284397Y-25155193D01*
X16284393Y-25155193D01*
X16127340Y-25183027D01*
X15966557Y-25211522D01*
X15962941Y-25212624D01*
X15962933Y-25212626D01*
X15657789Y-25305627D01*
X15654167Y-25306731D01*
X15355477Y-25438781D01*
X15330041Y-25453914D01*
X15078074Y-25603817D01*
X15078068Y-25603821D01*
X15074814Y-25605757D01*
X14816244Y-25805243D01*
X14772892Y-25847920D01*
X14710315Y-25881453D01*
X14639541Y-25875832D01*
X14583042Y-25832840D01*
X14558754Y-25766127D01*
X14558500Y-25758126D01*
X14558500Y-22500000D01*
X21036771Y-22500000D01*
X21055635Y-22679475D01*
X21111401Y-22851107D01*
X21201633Y-23007393D01*
X21322387Y-23141504D01*
X21468385Y-23247578D01*
X21474413Y-23250262D01*
X21474415Y-23250263D01*
X21492916Y-23258500D01*
X21633248Y-23320980D01*
X21721508Y-23339740D01*
X21803311Y-23357128D01*
X21803315Y-23357128D01*
X21809768Y-23358500D01*
X21990232Y-23358500D01*
X21996685Y-23357128D01*
X21996689Y-23357128D01*
X22078492Y-23339740D01*
X22166752Y-23320980D01*
X22282618Y-23269393D01*
X22333867Y-23258500D01*
X26266133Y-23258500D01*
X26317382Y-23269393D01*
X26433248Y-23320980D01*
X26521508Y-23339740D01*
X26603311Y-23357128D01*
X26603315Y-23357128D01*
X26609768Y-23358500D01*
X26790232Y-23358500D01*
X26796685Y-23357128D01*
X26796689Y-23357128D01*
X26878492Y-23339740D01*
X26966752Y-23320980D01*
X27107084Y-23258500D01*
X27125585Y-23250263D01*
X27125587Y-23250262D01*
X27131615Y-23247578D01*
X27277613Y-23141504D01*
X27398367Y-23007393D01*
X27488599Y-22851107D01*
X27544365Y-22679475D01*
X27563229Y-22500000D01*
X27544365Y-22320525D01*
X27488599Y-22148893D01*
X27398367Y-21992607D01*
X27277613Y-21858496D01*
X27131615Y-21752422D01*
X27125587Y-21749738D01*
X27125585Y-21749737D01*
X26972783Y-21681705D01*
X26972781Y-21681705D01*
X26966752Y-21679020D01*
X26868038Y-21658038D01*
X26796689Y-21642872D01*
X26796685Y-21642872D01*
X26790232Y-21641500D01*
X26609768Y-21641500D01*
X26603315Y-21642872D01*
X26603311Y-21642872D01*
X26531962Y-21658038D01*
X26433248Y-21679020D01*
X26427219Y-21681704D01*
X26427217Y-21681705D01*
X26317383Y-21730607D01*
X26266134Y-21741500D01*
X22333867Y-21741500D01*
X22282618Y-21730607D01*
X22172783Y-21681705D01*
X22172781Y-21681705D01*
X22166752Y-21679020D01*
X22068038Y-21658038D01*
X21996689Y-21642872D01*
X21996685Y-21642872D01*
X21990232Y-21641500D01*
X21809768Y-21641500D01*
X21803315Y-21642872D01*
X21803311Y-21642872D01*
X21731962Y-21658038D01*
X21633248Y-21679020D01*
X21627219Y-21681704D01*
X21627217Y-21681705D01*
X21474416Y-21749737D01*
X21474414Y-21749738D01*
X21468386Y-21752422D01*
X21463045Y-21756302D01*
X21463044Y-21756303D01*
X21327731Y-21854613D01*
X21327729Y-21854615D01*
X21322387Y-21858496D01*
X21201633Y-21992607D01*
X21111401Y-22148893D01*
X21055635Y-22320525D01*
X21036771Y-22500000D01*
X14558500Y-22500000D01*
X14558500Y-21302890D01*
X18947000Y-21302890D01*
X18947300Y-21309035D01*
X18961170Y-21450481D01*
X18963553Y-21462519D01*
X19018542Y-21644651D01*
X19023217Y-21655993D01*
X19112535Y-21823977D01*
X19119322Y-21834193D01*
X19239572Y-21981634D01*
X19248216Y-21990338D01*
X19394809Y-22111610D01*
X19404980Y-22118470D01*
X19572342Y-22208962D01*
X19583647Y-22213714D01*
X19708692Y-22252422D01*
X19722795Y-22252628D01*
X19726000Y-22245873D01*
X19726000Y-22238986D01*
X20234000Y-22238986D01*
X20237973Y-22252517D01*
X20245768Y-22253637D01*
X20362932Y-22219154D01*
X20374300Y-22214561D01*
X20542911Y-22126414D01*
X20553173Y-22119698D01*
X20701443Y-22000485D01*
X20710213Y-21991897D01*
X20832499Y-21846162D01*
X20839437Y-21836031D01*
X20931094Y-21669308D01*
X20935924Y-21658038D01*
X20993452Y-21476685D01*
X20996002Y-21464691D01*
X21012607Y-21316650D01*
X21013000Y-21309626D01*
X21013000Y-21152614D01*
X21033002Y-21084493D01*
X21086658Y-21038000D01*
X21156932Y-21027896D01*
X21166486Y-21029649D01*
X21311494Y-21062062D01*
X21311501Y-21062063D01*
X21316543Y-21063190D01*
X21322088Y-21063500D01*
X21455244Y-21063500D01*
X21590037Y-21048857D01*
X21728927Y-21002115D01*
X21755204Y-20993272D01*
X21755206Y-20993271D01*
X21761675Y-20991094D01*
X21916905Y-20897823D01*
X21921862Y-20893135D01*
X21921865Y-20893133D01*
X22043527Y-20778082D01*
X22043529Y-20778080D01*
X22048485Y-20773393D01*
X22052317Y-20767755D01*
X22052320Y-20767751D01*
X22146442Y-20629255D01*
X22150277Y-20623612D01*
X22217530Y-20455466D01*
X22218644Y-20448738D01*
X22218645Y-20448734D01*
X22245993Y-20283539D01*
X22245993Y-20283536D01*
X22247108Y-20276802D01*
X22242203Y-20183198D01*
X26352892Y-20183198D01*
X26353249Y-20190015D01*
X26353249Y-20190019D01*
X26358151Y-20283539D01*
X26362370Y-20364047D01*
X26364181Y-20370620D01*
X26364181Y-20370623D01*
X26393207Y-20476000D01*
X26410461Y-20538641D01*
X26494922Y-20698836D01*
X26499327Y-20704049D01*
X26499330Y-20704053D01*
X26607406Y-20831943D01*
X26607410Y-20831947D01*
X26611813Y-20837157D01*
X26617237Y-20841304D01*
X26617238Y-20841305D01*
X26750257Y-20943006D01*
X26750261Y-20943009D01*
X26755678Y-20947150D01*
X26838287Y-20985671D01*
X26913631Y-21020805D01*
X26913634Y-21020806D01*
X26919808Y-21023685D01*
X26926456Y-21025171D01*
X26926459Y-21025172D01*
X27032421Y-21048857D01*
X27096543Y-21063190D01*
X27102088Y-21063500D01*
X27235244Y-21063500D01*
X27370037Y-21048857D01*
X27376502Y-21046681D01*
X27376508Y-21046680D01*
X27420812Y-21031770D01*
X27491754Y-21029000D01*
X27552933Y-21065024D01*
X27584923Y-21128405D01*
X27587000Y-21151189D01*
X27587000Y-21302890D01*
X27587300Y-21309035D01*
X27601170Y-21450481D01*
X27603553Y-21462519D01*
X27658542Y-21644651D01*
X27663217Y-21655993D01*
X27752535Y-21823977D01*
X27759322Y-21834193D01*
X27879572Y-21981634D01*
X27888216Y-21990338D01*
X28034809Y-22111610D01*
X28044980Y-22118470D01*
X28212342Y-22208962D01*
X28223647Y-22213714D01*
X28348692Y-22252422D01*
X28362795Y-22252628D01*
X28366000Y-22245873D01*
X28366000Y-22238986D01*
X28874000Y-22238986D01*
X28877973Y-22252517D01*
X28885768Y-22253637D01*
X29002932Y-22219154D01*
X29014300Y-22214561D01*
X29182911Y-22126414D01*
X29193173Y-22119698D01*
X29341443Y-22000485D01*
X29350213Y-21991897D01*
X29472499Y-21846162D01*
X29479437Y-21836031D01*
X29571094Y-21669308D01*
X29575924Y-21658038D01*
X29633452Y-21476685D01*
X29636002Y-21464691D01*
X29652607Y-21316650D01*
X29653000Y-21309626D01*
X29653000Y-21002115D01*
X29648525Y-20986876D01*
X29647135Y-20985671D01*
X29639452Y-20984000D01*
X28892115Y-20984000D01*
X28876876Y-20988475D01*
X28875671Y-20989865D01*
X28874000Y-20997548D01*
X28874000Y-22238986D01*
X28366000Y-22238986D01*
X28366000Y-20457885D01*
X28874000Y-20457885D01*
X28878475Y-20473124D01*
X28879865Y-20474329D01*
X28887548Y-20476000D01*
X29634885Y-20476000D01*
X29650124Y-20471525D01*
X29651329Y-20470135D01*
X29653000Y-20462452D01*
X29653000Y-20157110D01*
X29652700Y-20150965D01*
X29638830Y-20009519D01*
X29636447Y-19997481D01*
X29581458Y-19815349D01*
X29576783Y-19804007D01*
X29487465Y-19636023D01*
X29480678Y-19625807D01*
X29360428Y-19478366D01*
X29351784Y-19469662D01*
X29205191Y-19348390D01*
X29195020Y-19341530D01*
X29027658Y-19251038D01*
X29016353Y-19246286D01*
X28891308Y-19207578D01*
X28877205Y-19207372D01*
X28874000Y-19214127D01*
X28874000Y-20457885D01*
X28366000Y-20457885D01*
X28366000Y-19221014D01*
X28362027Y-19207483D01*
X28354232Y-19206363D01*
X28237068Y-19240846D01*
X28225700Y-19245439D01*
X28057089Y-19333586D01*
X28046827Y-19340302D01*
X27898557Y-19459515D01*
X27889791Y-19468099D01*
X27840562Y-19526767D01*
X27781452Y-19566093D01*
X27710464Y-19567219D01*
X27667515Y-19545873D01*
X27624322Y-19512850D01*
X27509945Y-19459515D01*
X27466369Y-19439195D01*
X27466366Y-19439194D01*
X27460192Y-19436315D01*
X27453544Y-19434829D01*
X27453541Y-19434828D01*
X27288494Y-19397936D01*
X27288495Y-19397936D01*
X27283457Y-19396810D01*
X27277912Y-19396500D01*
X27144756Y-19396500D01*
X27009963Y-19411143D01*
X26926609Y-19439195D01*
X26844796Y-19466728D01*
X26844794Y-19466729D01*
X26838325Y-19468906D01*
X26683095Y-19562177D01*
X26678138Y-19566865D01*
X26678135Y-19566867D01*
X26556473Y-19681918D01*
X26551515Y-19686607D01*
X26547683Y-19692245D01*
X26547680Y-19692249D01*
X26496740Y-19767205D01*
X26449723Y-19836388D01*
X26382470Y-20004534D01*
X26381356Y-20011262D01*
X26381355Y-20011266D01*
X26359489Y-20143350D01*
X26352892Y-20183198D01*
X22242203Y-20183198D01*
X22237987Y-20102766D01*
X22237630Y-20095953D01*
X22214304Y-20011266D01*
X22191352Y-19927941D01*
X22189539Y-19921359D01*
X22105078Y-19761164D01*
X22100673Y-19755951D01*
X22100670Y-19755947D01*
X21992594Y-19628057D01*
X21992590Y-19628053D01*
X21988187Y-19622843D01*
X21976409Y-19613838D01*
X21849743Y-19516994D01*
X21849739Y-19516991D01*
X21844322Y-19512850D01*
X21729945Y-19459515D01*
X21686369Y-19439195D01*
X21686366Y-19439194D01*
X21680192Y-19436315D01*
X21673544Y-19434829D01*
X21673541Y-19434828D01*
X21508494Y-19397936D01*
X21508495Y-19397936D01*
X21503457Y-19396810D01*
X21497912Y-19396500D01*
X21364756Y-19396500D01*
X21229963Y-19411143D01*
X21146609Y-19439195D01*
X21064796Y-19466728D01*
X21064794Y-19466729D01*
X21058325Y-19468906D01*
X20919929Y-19552062D01*
X20851240Y-19570001D01*
X20783753Y-19547955D01*
X20757395Y-19523693D01*
X20720427Y-19478365D01*
X20711788Y-19469666D01*
X20565191Y-19348390D01*
X20555020Y-19341530D01*
X20387658Y-19251038D01*
X20376353Y-19246286D01*
X20251308Y-19207578D01*
X20237205Y-19207372D01*
X20234000Y-19214127D01*
X20234000Y-22238986D01*
X19726000Y-22238986D01*
X19726000Y-21002115D01*
X19721525Y-20986876D01*
X19720135Y-20985671D01*
X19712452Y-20984000D01*
X18965115Y-20984000D01*
X18949876Y-20988475D01*
X18948671Y-20989865D01*
X18947000Y-20997548D01*
X18947000Y-21302890D01*
X14558500Y-21302890D01*
X14558500Y-20457885D01*
X18947000Y-20457885D01*
X18951475Y-20473124D01*
X18952865Y-20474329D01*
X18960548Y-20476000D01*
X19707885Y-20476000D01*
X19723124Y-20471525D01*
X19724329Y-20470135D01*
X19726000Y-20462452D01*
X19726000Y-19221014D01*
X19722027Y-19207483D01*
X19714232Y-19206363D01*
X19597068Y-19240846D01*
X19585700Y-19245439D01*
X19417089Y-19333586D01*
X19406827Y-19340302D01*
X19258557Y-19459515D01*
X19249787Y-19468103D01*
X19127501Y-19613838D01*
X19120563Y-19623969D01*
X19028906Y-19790692D01*
X19024076Y-19801962D01*
X18966548Y-19983315D01*
X18963998Y-19995309D01*
X18947393Y-20143350D01*
X18947000Y-20150374D01*
X18947000Y-20457885D01*
X14558500Y-20457885D01*
X14558500Y-18545053D01*
X14578502Y-18476932D01*
X14632158Y-18430439D01*
X14702432Y-18420335D01*
X14769299Y-18451859D01*
X14777100Y-18458957D01*
X15025486Y-18659023D01*
X15031659Y-18663409D01*
X15302271Y-18832178D01*
X15308931Y-18835794D01*
X15597852Y-18970827D01*
X15604905Y-18973620D01*
X15907970Y-19072970D01*
X15915282Y-19074888D01*
X16228092Y-19137109D01*
X16235590Y-19138137D01*
X16553610Y-19162328D01*
X16561173Y-19162446D01*
X16879785Y-19148257D01*
X16887326Y-19147465D01*
X17201924Y-19095101D01*
X17209302Y-19093411D01*
X17515355Y-19003625D01*
X17522450Y-19001071D01*
X17815496Y-18875169D01*
X17822263Y-18871765D01*
X18098042Y-18711580D01*
X18104349Y-18707390D01*
X18314305Y-18548889D01*
X18322761Y-18537496D01*
X18316045Y-18525256D01*
X16329885Y-16539095D01*
X16295859Y-16476783D01*
X16300924Y-16405967D01*
X16329885Y-16360905D01*
X16510905Y-16179885D01*
X16573217Y-16145859D01*
X16644032Y-16150924D01*
X16689095Y-16179885D01*
X18673285Y-18164074D01*
X18686408Y-18171240D01*
X18696709Y-18163851D01*
X18800751Y-18036055D01*
X18805164Y-18029914D01*
X18975349Y-17760187D01*
X18978997Y-17753550D01*
X18994263Y-17721327D01*
X19041505Y-17668329D01*
X19109899Y-17649285D01*
X19177733Y-17670241D01*
X19205774Y-17695637D01*
X19257397Y-17758932D01*
X19266041Y-17767637D01*
X19408856Y-17885784D01*
X19419027Y-17892644D01*
X19582076Y-17980804D01*
X19593381Y-17985556D01*
X19708692Y-18021250D01*
X19722795Y-18021456D01*
X19726000Y-18014701D01*
X19726000Y-18007924D01*
X20234000Y-18007924D01*
X20237973Y-18021455D01*
X20245768Y-18022575D01*
X20353521Y-17990862D01*
X20364889Y-17986269D01*
X20529154Y-17900393D01*
X20539415Y-17893679D01*
X20683873Y-17777532D01*
X20692632Y-17768954D01*
X20811778Y-17626961D01*
X20818708Y-17616841D01*
X20908002Y-17454415D01*
X20912834Y-17443142D01*
X20968880Y-17266462D01*
X20971430Y-17254468D01*
X20987607Y-17110239D01*
X20988000Y-17103215D01*
X20988000Y-17096657D01*
X27612000Y-17096657D01*
X27612301Y-17102805D01*
X27625812Y-17240603D01*
X27628195Y-17252638D01*
X27681767Y-17430076D01*
X27686441Y-17441416D01*
X27773460Y-17605077D01*
X27780249Y-17615294D01*
X27897397Y-17758933D01*
X27906041Y-17767637D01*
X28048856Y-17885784D01*
X28059027Y-17892644D01*
X28222076Y-17980804D01*
X28233381Y-17985556D01*
X28348692Y-18021250D01*
X28362795Y-18021456D01*
X28366000Y-18014701D01*
X28366000Y-16822115D01*
X28361525Y-16806876D01*
X28360135Y-16805671D01*
X28352452Y-16804000D01*
X27630115Y-16804000D01*
X27614876Y-16808475D01*
X27613671Y-16809865D01*
X27612000Y-16817548D01*
X27612000Y-17096657D01*
X20988000Y-17096657D01*
X20988000Y-16822115D01*
X20983525Y-16806876D01*
X20982135Y-16805671D01*
X20974452Y-16804000D01*
X20252115Y-16804000D01*
X20236876Y-16808475D01*
X20235671Y-16809865D01*
X20234000Y-16817548D01*
X20234000Y-18007924D01*
X19726000Y-18007924D01*
X19726000Y-16277885D01*
X20234000Y-16277885D01*
X20238475Y-16293124D01*
X20239865Y-16294329D01*
X20247548Y-16296000D01*
X20969885Y-16296000D01*
X20985124Y-16291525D01*
X20986329Y-16290135D01*
X20988000Y-16282452D01*
X20988000Y-16277885D01*
X27612000Y-16277885D01*
X27616475Y-16293124D01*
X27617865Y-16294329D01*
X27625548Y-16296000D01*
X28347885Y-16296000D01*
X28363124Y-16291525D01*
X28364329Y-16290135D01*
X28366000Y-16282452D01*
X28366000Y-15092076D01*
X28362027Y-15078545D01*
X28354232Y-15077425D01*
X28246479Y-15109138D01*
X28235111Y-15113731D01*
X28070846Y-15199607D01*
X28060585Y-15206321D01*
X27916127Y-15322468D01*
X27907368Y-15331046D01*
X27788222Y-15473039D01*
X27781292Y-15483159D01*
X27691998Y-15645585D01*
X27687166Y-15656858D01*
X27631120Y-15833538D01*
X27628570Y-15845532D01*
X27612393Y-15989761D01*
X27612000Y-15996785D01*
X27612000Y-16277885D01*
X20988000Y-16277885D01*
X20988000Y-16003343D01*
X20987699Y-15997195D01*
X20974188Y-15859397D01*
X20971805Y-15847362D01*
X20918233Y-15669924D01*
X20913559Y-15658584D01*
X20826540Y-15494923D01*
X20819751Y-15484706D01*
X20702603Y-15341067D01*
X20693959Y-15332363D01*
X20551144Y-15214216D01*
X20540973Y-15207356D01*
X20377924Y-15119196D01*
X20366619Y-15114444D01*
X20251308Y-15078750D01*
X20237205Y-15078544D01*
X20234000Y-15085299D01*
X20234000Y-16277885D01*
X19726000Y-16277885D01*
X19726000Y-15092076D01*
X19722027Y-15078545D01*
X19714232Y-15077425D01*
X19606479Y-15109138D01*
X19595111Y-15113731D01*
X19430846Y-15199607D01*
X19420585Y-15206321D01*
X19276127Y-15322468D01*
X19267369Y-15331044D01*
X19265415Y-15333373D01*
X19264093Y-15334253D01*
X19262963Y-15335359D01*
X19262753Y-15335144D01*
X19206305Y-15372700D01*
X19135318Y-15373827D01*
X19074990Y-15336397D01*
X19053920Y-15303933D01*
X19005781Y-15196570D01*
X19002264Y-15189843D01*
X18837771Y-14916621D01*
X18833481Y-14910377D01*
X18637350Y-14658889D01*
X18632341Y-14653208D01*
X18602651Y-14623362D01*
X18568790Y-14560961D01*
X18574040Y-14490158D01*
X18616736Y-14433434D01*
X18683321Y-14408798D01*
X18691980Y-14408500D01*
X29905334Y-14408500D01*
X29973455Y-14428502D01*
G37*
%TD.AperFunction*%
%TD*%
M02*
