%TF.GenerationSoftware,KiCad,Pcbnew,(6.0.5)*%
%TF.CreationDate,2022-07-11T10:01:01-06:00*%
%TF.ProjectId,usbc-daughter-board,75736263-2d64-4617-9567-687465722d62,1.0*%
%TF.SameCoordinates,Original*%
%TF.FileFunction,Legend,Bot*%
%TF.FilePolarity,Positive*%
%FSLAX46Y46*%
G04 Gerber Fmt 4.6, Leading zero omitted, Abs format (unit mm)*
G04 Created by KiCad (PCBNEW (6.0.5)) date 2022-07-11 10:01:01*
%MOMM*%
%LPD*%
G01*
G04 APERTURE LIST*
%ADD10C,0.100000*%
G04 APERTURE END LIST*
D10*
X26496004Y-16889285D02*
X26433504Y-16389285D01*
X26451361Y-16532142D02*
X26406718Y-16460714D01*
X26366540Y-16425000D01*
X26290647Y-16389285D01*
X26219218Y-16389285D01*
X25924575Y-16889285D02*
X25991540Y-16853571D01*
X26022790Y-16817857D01*
X26049575Y-16746428D01*
X26022790Y-16532142D01*
X25978147Y-16460714D01*
X25937968Y-16425000D01*
X25862075Y-16389285D01*
X25754933Y-16389285D01*
X25687968Y-16425000D01*
X25656718Y-16460714D01*
X25629933Y-16532142D01*
X25656718Y-16746428D01*
X25701361Y-16817857D01*
X25741540Y-16853571D01*
X25817433Y-16889285D01*
X25924575Y-16889285D01*
X25397790Y-16389285D02*
X25112075Y-16389285D01*
X25259397Y-16139285D02*
X25339754Y-16782142D01*
X25312968Y-16853571D01*
X25246004Y-16889285D01*
X25174575Y-16889285D01*
X24924575Y-16889285D02*
X24830825Y-16139285D01*
X24603147Y-16889285D02*
X24554040Y-16496428D01*
X24580825Y-16425000D01*
X24647790Y-16389285D01*
X24754933Y-16389285D01*
X24830825Y-16425000D01*
X24871004Y-16460714D01*
X24246004Y-16889285D02*
X24183504Y-16389285D01*
X24192433Y-16460714D02*
X24152254Y-16425000D01*
X24076361Y-16389285D01*
X23969218Y-16389285D01*
X23902254Y-16425000D01*
X23875468Y-16496428D01*
X23924575Y-16889285D01*
X23875468Y-16496428D02*
X23830825Y-16425000D01*
X23754933Y-16389285D01*
X23647790Y-16389285D01*
X23580825Y-16425000D01*
X23554040Y-16496428D01*
X23603147Y-16889285D01*
X22924575Y-16889285D02*
X22875468Y-16496428D01*
X22902254Y-16425000D01*
X22969218Y-16389285D01*
X23112075Y-16389285D01*
X23187968Y-16425000D01*
X22920111Y-16853571D02*
X22996004Y-16889285D01*
X23174575Y-16889285D01*
X23241540Y-16853571D01*
X23268325Y-16782142D01*
X23259397Y-16710714D01*
X23214754Y-16639285D01*
X23138861Y-16603571D01*
X22960290Y-16603571D01*
X22884397Y-16567857D01*
X22504933Y-16389285D02*
X22567433Y-16889285D01*
X22513861Y-16460714D02*
X22473683Y-16425000D01*
X22397790Y-16389285D01*
X22290647Y-16389285D01*
X22223683Y-16425000D01*
X22196897Y-16496428D01*
X22246004Y-16889285D01*
X25388861Y-17889285D02*
X25326361Y-17389285D01*
X25344218Y-17532142D02*
X25299575Y-17460714D01*
X25259397Y-17425000D01*
X25183504Y-17389285D01*
X25112075Y-17389285D01*
X24634397Y-17853571D02*
X24710290Y-17889285D01*
X24853147Y-17889285D01*
X24920111Y-17853571D01*
X24946897Y-17782142D01*
X24911183Y-17496428D01*
X24866540Y-17425000D01*
X24790647Y-17389285D01*
X24647790Y-17389285D01*
X24580825Y-17425000D01*
X24554040Y-17496428D01*
X24562968Y-17567857D01*
X24929040Y-17639285D01*
X24290647Y-17389285D02*
X24174575Y-17889285D01*
X23933504Y-17389285D01*
X23317433Y-17889285D02*
X23746004Y-17889285D01*
X23531718Y-17889285D02*
X23437968Y-17139285D01*
X23522790Y-17246428D01*
X23603147Y-17317857D01*
X23679040Y-17353571D01*
M02*
