%TF.GenerationSoftware,KiCad,Pcbnew,(6.0.5)*%
%TF.CreationDate,2022-07-03T04:30:49-06:00*%
%TF.ProjectId,usbc-daughter-board,75736263-2d64-4617-9567-687465722d62,1.0*%
%TF.SameCoordinates,Original*%
%TF.FileFunction,Copper,L2,Bot*%
%TF.FilePolarity,Positive*%
%FSLAX46Y46*%
G04 Gerber Fmt 4.6, Leading zero omitted, Abs format (unit mm)*
G04 Created by KiCad (PCBNEW (6.0.5)) date 2022-07-03 04:30:49*
%MOMM*%
%LPD*%
G01*
G04 APERTURE LIST*
%TA.AperFunction,ComponentPad*%
%ADD10O,1.000000X1.600000*%
%TD*%
%TA.AperFunction,ComponentPad*%
%ADD11O,1.000000X2.100000*%
%TD*%
%TA.AperFunction,ViaPad*%
%ADD12C,0.700000*%
%TD*%
%TA.AperFunction,Conductor*%
%ADD13C,0.500000*%
%TD*%
G04 APERTURE END LIST*
D10*
%TO.P,J1,S1,SHIELD*%
%TO.N,unconnected-(J1-PadS1)*%
X131820000Y-63860000D03*
D11*
X131820000Y-68040000D03*
D10*
X123180000Y-63860000D03*
D11*
X123180000Y-68040000D03*
%TD*%
D12*
%TO.N,GND*%
X131200000Y-70200000D03*
X125500000Y-74400000D03*
X133600000Y-68500000D03*
X123800000Y-70200000D03*
X125600000Y-72500000D03*
X132300000Y-70600000D03*
X121400000Y-68500000D03*
%TO.N,/CON_VBUS*%
X129940000Y-70230000D03*
X125050000Y-70240000D03*
%TD*%
D13*
%TO.N,/CON_VBUS*%
X125060000Y-70230000D02*
X125050000Y-70240000D01*
X129940000Y-70230000D02*
X125060000Y-70230000D01*
%TO.N,unconnected-(J1-PadS1)*%
X123180000Y-63860000D02*
X131820000Y-63860000D01*
X123180000Y-68040000D02*
X123180000Y-63860000D01*
X131820000Y-63860000D02*
X131820000Y-68040000D01*
%TD*%
%TA.AperFunction,Conductor*%
%TO.N,GND*%
G36*
X135270018Y-61110000D02*
G01*
X135284851Y-61112310D01*
X135284855Y-61112310D01*
X135293724Y-61113691D01*
X135310012Y-61111561D01*
X135334589Y-61110767D01*
X135361441Y-61112527D01*
X135551701Y-61124998D01*
X135568041Y-61127149D01*
X135687690Y-61150948D01*
X135807343Y-61174749D01*
X135823257Y-61179013D01*
X135938776Y-61218227D01*
X136054292Y-61257439D01*
X136069519Y-61263746D01*
X136288342Y-61371657D01*
X136302616Y-61379898D01*
X136505478Y-61515447D01*
X136518553Y-61525480D01*
X136701993Y-61686352D01*
X136713648Y-61698007D01*
X136874520Y-61881447D01*
X136884553Y-61894522D01*
X137020102Y-62097384D01*
X137028343Y-62111658D01*
X137136254Y-62330481D01*
X137142561Y-62345708D01*
X137217788Y-62567318D01*
X137220986Y-62576740D01*
X137225251Y-62592657D01*
X137231482Y-62623980D01*
X137272851Y-62831959D01*
X137275002Y-62848299D01*
X137288077Y-63047763D01*
X137288763Y-63058236D01*
X137287733Y-63081350D01*
X137287690Y-63084854D01*
X137286309Y-63093724D01*
X137287473Y-63102626D01*
X137287473Y-63102628D01*
X137290436Y-63125283D01*
X137291500Y-63141621D01*
X137291500Y-78650633D01*
X137290000Y-78670018D01*
X137287690Y-78684851D01*
X137287690Y-78684855D01*
X137286309Y-78693724D01*
X137288136Y-78707694D01*
X137288439Y-78710010D01*
X137289233Y-78734590D01*
X137275002Y-78951701D01*
X137272851Y-78968041D01*
X137225252Y-79207340D01*
X137220986Y-79223260D01*
X137142561Y-79454292D01*
X137136254Y-79469519D01*
X137028343Y-79688342D01*
X137020102Y-79702616D01*
X136884553Y-79905478D01*
X136874520Y-79918553D01*
X136713648Y-80101993D01*
X136701993Y-80113648D01*
X136518553Y-80274520D01*
X136505478Y-80284553D01*
X136302616Y-80420102D01*
X136288342Y-80428343D01*
X136069519Y-80536254D01*
X136054292Y-80542561D01*
X135938776Y-80581773D01*
X135823257Y-80620987D01*
X135807343Y-80625251D01*
X135687691Y-80649051D01*
X135568041Y-80672851D01*
X135551701Y-80675002D01*
X135410437Y-80684262D01*
X135341763Y-80688763D01*
X135318650Y-80687733D01*
X135315146Y-80687690D01*
X135306276Y-80686309D01*
X135297374Y-80687473D01*
X135297372Y-80687473D01*
X135283915Y-80689233D01*
X135274714Y-80690436D01*
X135258379Y-80691500D01*
X119749367Y-80691500D01*
X119729982Y-80690000D01*
X119715149Y-80687690D01*
X119715145Y-80687690D01*
X119706276Y-80686309D01*
X119689988Y-80688439D01*
X119665411Y-80689233D01*
X119620801Y-80686309D01*
X119448299Y-80675002D01*
X119431959Y-80672851D01*
X119312309Y-80649051D01*
X119192657Y-80625251D01*
X119176743Y-80620987D01*
X119061224Y-80581773D01*
X118945708Y-80542561D01*
X118930481Y-80536254D01*
X118711658Y-80428343D01*
X118697384Y-80420102D01*
X118494522Y-80284553D01*
X118481447Y-80274520D01*
X118298007Y-80113648D01*
X118286352Y-80101993D01*
X118125480Y-79918553D01*
X118115447Y-79905478D01*
X117979898Y-79702616D01*
X117971657Y-79688342D01*
X117863746Y-79469519D01*
X117857439Y-79454292D01*
X117779014Y-79223260D01*
X117774748Y-79207340D01*
X117727149Y-78968041D01*
X117724998Y-78951701D01*
X117718516Y-78852817D01*
X118087514Y-78852817D01*
X118088095Y-78857837D01*
X118088095Y-78857841D01*
X118103923Y-78994631D01*
X118115415Y-79093956D01*
X118116791Y-79098820D01*
X118116792Y-79098823D01*
X118162476Y-79260266D01*
X118181510Y-79327532D01*
X118183644Y-79332108D01*
X118183646Y-79332114D01*
X118242483Y-79458290D01*
X118284099Y-79547536D01*
X118420544Y-79748307D01*
X118587332Y-79924681D01*
X118591358Y-79927759D01*
X118591359Y-79927760D01*
X118776154Y-80069047D01*
X118776158Y-80069050D01*
X118780174Y-80072120D01*
X118994109Y-80186831D01*
X119223631Y-80265862D01*
X119273757Y-80274520D01*
X119458926Y-80306504D01*
X119458932Y-80306505D01*
X119462836Y-80307179D01*
X119466797Y-80307359D01*
X119466798Y-80307359D01*
X119490506Y-80308436D01*
X119490525Y-80308436D01*
X119491925Y-80308500D01*
X119661001Y-80308500D01*
X119663509Y-80308298D01*
X119663514Y-80308298D01*
X119836924Y-80294346D01*
X119836929Y-80294345D01*
X119841965Y-80293940D01*
X119846873Y-80292734D01*
X119846876Y-80292734D01*
X120072792Y-80237244D01*
X120077706Y-80236037D01*
X120082358Y-80234062D01*
X120082362Y-80234061D01*
X120296498Y-80143165D01*
X120301156Y-80141188D01*
X120407037Y-80074511D01*
X120502288Y-80014528D01*
X120502291Y-80014526D01*
X120506567Y-80011833D01*
X120605422Y-79924681D01*
X120684858Y-79854650D01*
X120684861Y-79854647D01*
X120688655Y-79851302D01*
X120776696Y-79744119D01*
X120839526Y-79667628D01*
X120839528Y-79667625D01*
X120842734Y-79663722D01*
X120913023Y-79542954D01*
X120962299Y-79458290D01*
X120962300Y-79458288D01*
X120964841Y-79453922D01*
X121051833Y-79227298D01*
X121054311Y-79215438D01*
X121100440Y-78994631D01*
X121100440Y-78994627D01*
X121101474Y-78989680D01*
X121107689Y-78852817D01*
X133887514Y-78852817D01*
X133888095Y-78857837D01*
X133888095Y-78857841D01*
X133903923Y-78994631D01*
X133915415Y-79093956D01*
X133916791Y-79098820D01*
X133916792Y-79098823D01*
X133962476Y-79260266D01*
X133981510Y-79327532D01*
X133983644Y-79332108D01*
X133983646Y-79332114D01*
X134042483Y-79458290D01*
X134084099Y-79547536D01*
X134220544Y-79748307D01*
X134387332Y-79924681D01*
X134391358Y-79927759D01*
X134391359Y-79927760D01*
X134576154Y-80069047D01*
X134576158Y-80069050D01*
X134580174Y-80072120D01*
X134794109Y-80186831D01*
X135023631Y-80265862D01*
X135073757Y-80274520D01*
X135258926Y-80306504D01*
X135258932Y-80306505D01*
X135262836Y-80307179D01*
X135266797Y-80307359D01*
X135266798Y-80307359D01*
X135290506Y-80308436D01*
X135290525Y-80308436D01*
X135291925Y-80308500D01*
X135461001Y-80308500D01*
X135463509Y-80308298D01*
X135463514Y-80308298D01*
X135636924Y-80294346D01*
X135636929Y-80294345D01*
X135641965Y-80293940D01*
X135646873Y-80292734D01*
X135646876Y-80292734D01*
X135872792Y-80237244D01*
X135877706Y-80236037D01*
X135882358Y-80234062D01*
X135882362Y-80234061D01*
X136096498Y-80143165D01*
X136101156Y-80141188D01*
X136207037Y-80074511D01*
X136302288Y-80014528D01*
X136302291Y-80014526D01*
X136306567Y-80011833D01*
X136405422Y-79924681D01*
X136484858Y-79854650D01*
X136484861Y-79854647D01*
X136488655Y-79851302D01*
X136576696Y-79744119D01*
X136639526Y-79667628D01*
X136639528Y-79667625D01*
X136642734Y-79663722D01*
X136713023Y-79542954D01*
X136762299Y-79458290D01*
X136762300Y-79458288D01*
X136764841Y-79453922D01*
X136851833Y-79227298D01*
X136854311Y-79215438D01*
X136900440Y-78994631D01*
X136900440Y-78994627D01*
X136901474Y-78989680D01*
X136912486Y-78747183D01*
X136907027Y-78700000D01*
X136885167Y-78511071D01*
X136885166Y-78511067D01*
X136884585Y-78506044D01*
X136845517Y-78367978D01*
X136819866Y-78277331D01*
X136818490Y-78272468D01*
X136816356Y-78267892D01*
X136816354Y-78267886D01*
X136718038Y-78057046D01*
X136718036Y-78057042D01*
X136715901Y-78052464D01*
X136579456Y-77851693D01*
X136412668Y-77675319D01*
X136408641Y-77672240D01*
X136223846Y-77530953D01*
X136223842Y-77530950D01*
X136219826Y-77527880D01*
X136005891Y-77413169D01*
X135776369Y-77334138D01*
X135677022Y-77316978D01*
X135541074Y-77293496D01*
X135541068Y-77293495D01*
X135537164Y-77292821D01*
X135533203Y-77292641D01*
X135533202Y-77292641D01*
X135509494Y-77291564D01*
X135509475Y-77291564D01*
X135508075Y-77291500D01*
X135338999Y-77291500D01*
X135336491Y-77291702D01*
X135336486Y-77291702D01*
X135163076Y-77305654D01*
X135163071Y-77305655D01*
X135158035Y-77306060D01*
X135153127Y-77307266D01*
X135153124Y-77307266D01*
X135037007Y-77335787D01*
X134922294Y-77363963D01*
X134917642Y-77365938D01*
X134917638Y-77365939D01*
X134810252Y-77411522D01*
X134698844Y-77458812D01*
X134694560Y-77461510D01*
X134497712Y-77585472D01*
X134497709Y-77585474D01*
X134493433Y-77588167D01*
X134489639Y-77591512D01*
X134315142Y-77745350D01*
X134315139Y-77745353D01*
X134311345Y-77748698D01*
X134157266Y-77936278D01*
X134035159Y-78146078D01*
X133948167Y-78372702D01*
X133898526Y-78610320D01*
X133887514Y-78852817D01*
X121107689Y-78852817D01*
X121112486Y-78747183D01*
X121107027Y-78700000D01*
X121085167Y-78511071D01*
X121085166Y-78511067D01*
X121084585Y-78506044D01*
X121045517Y-78367978D01*
X121019866Y-78277331D01*
X121018490Y-78272468D01*
X121016356Y-78267892D01*
X121016354Y-78267886D01*
X120918038Y-78057046D01*
X120918036Y-78057042D01*
X120915901Y-78052464D01*
X120779456Y-77851693D01*
X120612668Y-77675319D01*
X120608641Y-77672240D01*
X120423846Y-77530953D01*
X120423842Y-77530950D01*
X120419826Y-77527880D01*
X120205891Y-77413169D01*
X119976369Y-77334138D01*
X119877022Y-77316978D01*
X119741074Y-77293496D01*
X119741068Y-77293495D01*
X119737164Y-77292821D01*
X119733203Y-77292641D01*
X119733202Y-77292641D01*
X119709494Y-77291564D01*
X119709475Y-77291564D01*
X119708075Y-77291500D01*
X119538999Y-77291500D01*
X119536491Y-77291702D01*
X119536486Y-77291702D01*
X119363076Y-77305654D01*
X119363071Y-77305655D01*
X119358035Y-77306060D01*
X119353127Y-77307266D01*
X119353124Y-77307266D01*
X119237007Y-77335787D01*
X119122294Y-77363963D01*
X119117642Y-77365938D01*
X119117638Y-77365939D01*
X119010252Y-77411522D01*
X118898844Y-77458812D01*
X118894560Y-77461510D01*
X118697712Y-77585472D01*
X118697709Y-77585474D01*
X118693433Y-77588167D01*
X118689639Y-77591512D01*
X118515142Y-77745350D01*
X118515139Y-77745353D01*
X118511345Y-77748698D01*
X118357266Y-77936278D01*
X118235159Y-78146078D01*
X118148167Y-78372702D01*
X118098526Y-78610320D01*
X118087514Y-78852817D01*
X117718516Y-78852817D01*
X117711476Y-78745407D01*
X117712650Y-78722232D01*
X117712334Y-78722204D01*
X117712770Y-78717344D01*
X117713576Y-78712552D01*
X117713729Y-78700000D01*
X117709773Y-78672376D01*
X117708500Y-78654514D01*
X117708500Y-70240000D01*
X124186771Y-70240000D01*
X124205635Y-70419475D01*
X124261401Y-70591107D01*
X124351633Y-70747393D01*
X124472387Y-70881504D01*
X124618385Y-70987578D01*
X124624413Y-70990262D01*
X124624415Y-70990263D01*
X124763869Y-71052352D01*
X124783248Y-71060980D01*
X124871508Y-71079740D01*
X124953311Y-71097128D01*
X124953315Y-71097128D01*
X124959768Y-71098500D01*
X125140232Y-71098500D01*
X125146685Y-71097128D01*
X125146689Y-71097128D01*
X125228492Y-71079740D01*
X125316752Y-71060980D01*
X125339213Y-71050980D01*
X125455078Y-70999393D01*
X125506327Y-70988500D01*
X129506133Y-70988500D01*
X129557382Y-70999393D01*
X129673248Y-71050980D01*
X129761508Y-71069740D01*
X129843311Y-71087128D01*
X129843315Y-71087128D01*
X129849768Y-71088500D01*
X130030232Y-71088500D01*
X130036685Y-71087128D01*
X130036689Y-71087128D01*
X130118492Y-71069740D01*
X130206752Y-71050980D01*
X130322618Y-70999393D01*
X130365585Y-70980263D01*
X130365587Y-70980262D01*
X130371615Y-70977578D01*
X130498505Y-70885387D01*
X130512269Y-70875387D01*
X130512271Y-70875385D01*
X130517613Y-70871504D01*
X130638367Y-70737393D01*
X130719521Y-70596830D01*
X130725295Y-70586830D01*
X130725296Y-70586829D01*
X130728599Y-70581107D01*
X130784365Y-70409475D01*
X130803229Y-70230000D01*
X130784365Y-70050525D01*
X130728599Y-69878893D01*
X130638367Y-69722607D01*
X130517613Y-69588496D01*
X130510498Y-69583326D01*
X130376957Y-69486303D01*
X130376956Y-69486302D01*
X130371615Y-69482422D01*
X130365587Y-69479738D01*
X130365585Y-69479737D01*
X130212783Y-69411705D01*
X130212781Y-69411705D01*
X130206752Y-69409020D01*
X130118492Y-69390260D01*
X130036689Y-69372872D01*
X130036685Y-69372872D01*
X130030232Y-69371500D01*
X129849768Y-69371500D01*
X129843315Y-69372872D01*
X129843311Y-69372872D01*
X129761508Y-69390260D01*
X129673248Y-69409020D01*
X129667219Y-69411704D01*
X129667217Y-69411705D01*
X129557383Y-69460607D01*
X129506134Y-69471500D01*
X125461407Y-69471500D01*
X125410158Y-69460607D01*
X125322783Y-69421705D01*
X125322782Y-69421705D01*
X125316752Y-69419020D01*
X125228492Y-69400260D01*
X125146689Y-69382872D01*
X125146685Y-69382872D01*
X125140232Y-69381500D01*
X124959768Y-69381500D01*
X124953315Y-69382872D01*
X124953311Y-69382872D01*
X124871508Y-69400260D01*
X124783248Y-69419020D01*
X124777219Y-69421704D01*
X124777217Y-69421705D01*
X124624416Y-69489737D01*
X124624414Y-69489738D01*
X124618386Y-69492422D01*
X124613045Y-69496302D01*
X124613044Y-69496303D01*
X124477731Y-69594613D01*
X124477729Y-69594615D01*
X124472387Y-69598496D01*
X124351633Y-69732607D01*
X124348332Y-69738325D01*
X124267175Y-69878893D01*
X124261401Y-69888893D01*
X124205635Y-70060525D01*
X124186771Y-70240000D01*
X117708500Y-70240000D01*
X117708500Y-68639769D01*
X122171500Y-68639769D01*
X122171800Y-68642825D01*
X122171800Y-68642832D01*
X122172530Y-68650273D01*
X122185920Y-68786833D01*
X122243084Y-68976169D01*
X122335934Y-69150796D01*
X122406291Y-69237062D01*
X122457040Y-69299287D01*
X122457043Y-69299290D01*
X122460935Y-69304062D01*
X122465682Y-69307989D01*
X122465684Y-69307991D01*
X122608575Y-69426201D01*
X122608579Y-69426203D01*
X122613325Y-69430130D01*
X122787299Y-69524198D01*
X122976232Y-69582682D01*
X122982357Y-69583326D01*
X122982358Y-69583326D01*
X123166796Y-69602711D01*
X123166798Y-69602711D01*
X123172925Y-69603355D01*
X123268984Y-69594613D01*
X123363749Y-69585989D01*
X123363752Y-69585988D01*
X123369888Y-69585430D01*
X123375794Y-69583692D01*
X123375798Y-69583691D01*
X123480924Y-69552751D01*
X123559619Y-69529590D01*
X123565077Y-69526737D01*
X123565081Y-69526735D01*
X123670734Y-69471500D01*
X123734890Y-69437960D01*
X123889025Y-69314032D01*
X124016154Y-69162526D01*
X124019121Y-69157128D01*
X124019125Y-69157123D01*
X124108467Y-68994608D01*
X124111433Y-68989213D01*
X124113846Y-68981608D01*
X124169373Y-68806564D01*
X124169373Y-68806563D01*
X124171235Y-68800694D01*
X124188500Y-68646773D01*
X124188500Y-68427138D01*
X124208502Y-68359017D01*
X124262158Y-68312524D01*
X124332432Y-68302420D01*
X124341986Y-68304172D01*
X124346460Y-68305172D01*
X124516543Y-68343190D01*
X124522088Y-68343500D01*
X124655244Y-68343500D01*
X124790037Y-68328857D01*
X124908190Y-68289094D01*
X124955204Y-68273272D01*
X124955206Y-68273271D01*
X124961675Y-68271094D01*
X125116905Y-68177823D01*
X125121862Y-68173135D01*
X125121865Y-68173133D01*
X125243527Y-68058082D01*
X125243529Y-68058080D01*
X125248485Y-68053393D01*
X125252317Y-68047755D01*
X125252320Y-68047751D01*
X125346442Y-67909255D01*
X125350277Y-67903612D01*
X125417530Y-67735466D01*
X125418644Y-67728738D01*
X125418645Y-67728734D01*
X125445993Y-67563539D01*
X125445993Y-67563536D01*
X125447108Y-67556802D01*
X125442203Y-67463198D01*
X125437987Y-67382766D01*
X125437630Y-67375953D01*
X125414304Y-67291266D01*
X125391352Y-67207941D01*
X125389539Y-67201359D01*
X125305078Y-67041164D01*
X125300673Y-67035951D01*
X125300670Y-67035947D01*
X125192594Y-66908057D01*
X125192590Y-66908053D01*
X125188187Y-66902843D01*
X125182762Y-66898695D01*
X125049743Y-66796994D01*
X125049739Y-66796991D01*
X125044322Y-66792850D01*
X124939186Y-66743825D01*
X124886369Y-66719195D01*
X124886366Y-66719194D01*
X124880192Y-66716315D01*
X124873544Y-66714829D01*
X124873541Y-66714828D01*
X124708494Y-66677936D01*
X124708495Y-66677936D01*
X124703457Y-66676810D01*
X124697912Y-66676500D01*
X124564756Y-66676500D01*
X124429963Y-66691143D01*
X124311810Y-66730906D01*
X124264796Y-66746728D01*
X124264794Y-66746729D01*
X124258325Y-66748906D01*
X124252470Y-66752424D01*
X124129394Y-66826375D01*
X124060702Y-66844315D01*
X123993215Y-66822268D01*
X123948361Y-66767235D01*
X123938500Y-66718372D01*
X123938500Y-64870929D01*
X123958502Y-64802808D01*
X123967970Y-64789949D01*
X124016154Y-64732526D01*
X124042942Y-64683799D01*
X124093288Y-64633740D01*
X124153357Y-64618500D01*
X130845834Y-64618500D01*
X130913955Y-64638502D01*
X130957086Y-64685348D01*
X130973038Y-64715351D01*
X130973041Y-64715355D01*
X130975934Y-64720796D01*
X131031842Y-64789346D01*
X131033143Y-64790941D01*
X131060697Y-64856373D01*
X131061500Y-64870577D01*
X131061500Y-66719245D01*
X131041498Y-66787366D01*
X130987842Y-66833859D01*
X130917568Y-66843963D01*
X130858971Y-66819341D01*
X130829743Y-66796995D01*
X130824322Y-66792850D01*
X130719186Y-66743825D01*
X130666369Y-66719195D01*
X130666366Y-66719194D01*
X130660192Y-66716315D01*
X130653544Y-66714829D01*
X130653541Y-66714828D01*
X130488494Y-66677936D01*
X130488495Y-66677936D01*
X130483457Y-66676810D01*
X130477912Y-66676500D01*
X130344756Y-66676500D01*
X130209963Y-66691143D01*
X130091810Y-66730906D01*
X130044796Y-66746728D01*
X130044794Y-66746729D01*
X130038325Y-66748906D01*
X129883095Y-66842177D01*
X129878138Y-66846865D01*
X129878135Y-66846867D01*
X129756473Y-66961918D01*
X129751515Y-66966607D01*
X129747683Y-66972245D01*
X129747680Y-66972249D01*
X129663133Y-67096656D01*
X129649723Y-67116388D01*
X129582470Y-67284534D01*
X129581356Y-67291262D01*
X129581355Y-67291266D01*
X129557270Y-67436751D01*
X129552892Y-67463198D01*
X129553249Y-67470015D01*
X129553249Y-67470019D01*
X129558151Y-67563539D01*
X129562370Y-67644047D01*
X129564181Y-67650620D01*
X129564181Y-67650623D01*
X129587551Y-67735466D01*
X129610461Y-67818641D01*
X129694922Y-67978836D01*
X129699327Y-67984049D01*
X129699330Y-67984053D01*
X129807406Y-68111943D01*
X129807410Y-68111947D01*
X129811813Y-68117157D01*
X129817237Y-68121304D01*
X129817238Y-68121305D01*
X129950257Y-68223006D01*
X129950261Y-68223009D01*
X129955678Y-68227150D01*
X130042372Y-68267576D01*
X130113631Y-68300805D01*
X130113634Y-68300806D01*
X130119808Y-68303685D01*
X130126456Y-68305171D01*
X130126459Y-68305172D01*
X130222686Y-68326681D01*
X130296543Y-68343190D01*
X130302088Y-68343500D01*
X130435244Y-68343500D01*
X130570037Y-68328857D01*
X130645312Y-68303524D01*
X130716253Y-68300754D01*
X130777432Y-68336777D01*
X130809423Y-68400158D01*
X130811500Y-68422943D01*
X130811500Y-68639769D01*
X130811800Y-68642825D01*
X130811800Y-68642832D01*
X130812530Y-68650273D01*
X130825920Y-68786833D01*
X130883084Y-68976169D01*
X130975934Y-69150796D01*
X131046291Y-69237062D01*
X131097040Y-69299287D01*
X131097043Y-69299290D01*
X131100935Y-69304062D01*
X131105682Y-69307989D01*
X131105684Y-69307991D01*
X131248575Y-69426201D01*
X131248579Y-69426203D01*
X131253325Y-69430130D01*
X131427299Y-69524198D01*
X131616232Y-69582682D01*
X131622357Y-69583326D01*
X131622358Y-69583326D01*
X131806796Y-69602711D01*
X131806798Y-69602711D01*
X131812925Y-69603355D01*
X131908984Y-69594613D01*
X132003749Y-69585989D01*
X132003752Y-69585988D01*
X132009888Y-69585430D01*
X132015794Y-69583692D01*
X132015798Y-69583691D01*
X132120924Y-69552751D01*
X132199619Y-69529590D01*
X132205077Y-69526737D01*
X132205081Y-69526735D01*
X132310734Y-69471500D01*
X132374890Y-69437960D01*
X132529025Y-69314032D01*
X132656154Y-69162526D01*
X132659121Y-69157128D01*
X132659125Y-69157123D01*
X132748467Y-68994608D01*
X132751433Y-68989213D01*
X132753846Y-68981608D01*
X132809373Y-68806564D01*
X132809373Y-68806563D01*
X132811235Y-68800694D01*
X132828500Y-68646773D01*
X132828500Y-67440231D01*
X132827814Y-67433227D01*
X132814681Y-67299301D01*
X132814080Y-67293167D01*
X132756916Y-67103831D01*
X132664066Y-66929204D01*
X132606857Y-66859059D01*
X132579303Y-66793627D01*
X132578500Y-66779423D01*
X132578500Y-64870929D01*
X132598502Y-64802808D01*
X132607970Y-64789949D01*
X132656154Y-64732526D01*
X132659121Y-64727128D01*
X132659125Y-64727123D01*
X132748467Y-64564608D01*
X132751433Y-64559213D01*
X132753846Y-64551608D01*
X132809373Y-64376564D01*
X132809373Y-64376563D01*
X132811235Y-64370694D01*
X132828500Y-64216773D01*
X132828500Y-63510231D01*
X132827814Y-63503227D01*
X132820368Y-63427298D01*
X132814080Y-63363167D01*
X132756916Y-63173831D01*
X132692572Y-63052817D01*
X133887514Y-63052817D01*
X133888095Y-63057837D01*
X133888095Y-63057841D01*
X133903923Y-63194631D01*
X133915415Y-63293956D01*
X133916791Y-63298820D01*
X133916792Y-63298823D01*
X133962476Y-63460266D01*
X133981510Y-63527532D01*
X133983644Y-63532108D01*
X133983646Y-63532114D01*
X134040446Y-63653922D01*
X134084099Y-63747536D01*
X134220544Y-63948307D01*
X134387332Y-64124681D01*
X134391358Y-64127759D01*
X134391359Y-64127760D01*
X134576154Y-64269047D01*
X134576158Y-64269050D01*
X134580174Y-64272120D01*
X134794109Y-64386831D01*
X135023631Y-64465862D01*
X135122978Y-64483022D01*
X135258926Y-64506504D01*
X135258932Y-64506505D01*
X135262836Y-64507179D01*
X135266797Y-64507359D01*
X135266798Y-64507359D01*
X135290506Y-64508436D01*
X135290525Y-64508436D01*
X135291925Y-64508500D01*
X135461001Y-64508500D01*
X135463509Y-64508298D01*
X135463514Y-64508298D01*
X135636924Y-64494346D01*
X135636929Y-64494345D01*
X135641965Y-64493940D01*
X135646873Y-64492734D01*
X135646876Y-64492734D01*
X135872792Y-64437244D01*
X135877706Y-64436037D01*
X135882358Y-64434062D01*
X135882362Y-64434061D01*
X136050392Y-64362736D01*
X136101156Y-64341188D01*
X136207037Y-64274511D01*
X136302288Y-64214528D01*
X136302291Y-64214526D01*
X136306567Y-64211833D01*
X136405422Y-64124681D01*
X136484858Y-64054650D01*
X136484861Y-64054647D01*
X136488655Y-64051302D01*
X136642734Y-63863722D01*
X136764841Y-63653922D01*
X136818815Y-63513313D01*
X136850020Y-63432022D01*
X136850021Y-63432018D01*
X136851833Y-63427298D01*
X136866848Y-63355425D01*
X136900440Y-63194631D01*
X136900440Y-63194627D01*
X136901474Y-63189680D01*
X136912486Y-62947183D01*
X136901045Y-62848299D01*
X136885167Y-62711071D01*
X136885166Y-62711067D01*
X136884585Y-62706044D01*
X136845517Y-62567978D01*
X136819866Y-62477331D01*
X136818490Y-62472468D01*
X136816356Y-62467892D01*
X136816354Y-62467886D01*
X136718038Y-62257046D01*
X136718036Y-62257042D01*
X136715901Y-62252464D01*
X136579456Y-62051693D01*
X136412668Y-61875319D01*
X136408641Y-61872240D01*
X136223846Y-61730953D01*
X136223842Y-61730950D01*
X136219826Y-61727880D01*
X136005891Y-61613169D01*
X135776369Y-61534138D01*
X135668157Y-61515447D01*
X135541074Y-61493496D01*
X135541068Y-61493495D01*
X135537164Y-61492821D01*
X135533203Y-61492641D01*
X135533202Y-61492641D01*
X135509494Y-61491564D01*
X135509475Y-61491564D01*
X135508075Y-61491500D01*
X135338999Y-61491500D01*
X135336491Y-61491702D01*
X135336486Y-61491702D01*
X135163076Y-61505654D01*
X135163071Y-61505655D01*
X135158035Y-61506060D01*
X135153127Y-61507266D01*
X135153124Y-61507266D01*
X135037007Y-61535787D01*
X134922294Y-61563963D01*
X134917642Y-61565938D01*
X134917638Y-61565939D01*
X134852271Y-61593686D01*
X134698844Y-61658812D01*
X134646465Y-61691797D01*
X134497712Y-61785472D01*
X134497709Y-61785474D01*
X134493433Y-61788167D01*
X134489639Y-61791512D01*
X134315142Y-61945350D01*
X134315139Y-61945353D01*
X134311345Y-61948698D01*
X134308135Y-61952606D01*
X134308134Y-61952607D01*
X134189214Y-62097384D01*
X134157266Y-62136278D01*
X134096213Y-62241178D01*
X134044237Y-62330481D01*
X134035159Y-62346078D01*
X134033346Y-62350801D01*
X133950234Y-62567318D01*
X133948167Y-62572702D01*
X133947133Y-62577652D01*
X133947132Y-62577655D01*
X133903796Y-62785095D01*
X133898526Y-62810320D01*
X133887514Y-63052817D01*
X132692572Y-63052817D01*
X132664066Y-62999204D01*
X132593709Y-62912938D01*
X132542960Y-62850713D01*
X132542957Y-62850710D01*
X132539065Y-62845938D01*
X132531956Y-62840057D01*
X132391425Y-62723799D01*
X132391421Y-62723797D01*
X132386675Y-62719870D01*
X132212701Y-62625802D01*
X132023768Y-62567318D01*
X132017643Y-62566674D01*
X132017642Y-62566674D01*
X131833204Y-62547289D01*
X131833202Y-62547289D01*
X131827075Y-62546645D01*
X131744576Y-62554153D01*
X131636251Y-62564011D01*
X131636248Y-62564012D01*
X131630112Y-62564570D01*
X131624206Y-62566308D01*
X131624202Y-62566309D01*
X131534669Y-62592660D01*
X131440381Y-62620410D01*
X131434923Y-62623263D01*
X131434919Y-62623265D01*
X131344147Y-62670720D01*
X131265110Y-62712040D01*
X131110975Y-62835968D01*
X130983846Y-62987474D01*
X130980876Y-62992877D01*
X130980875Y-62992878D01*
X130957058Y-63036201D01*
X130906712Y-63086260D01*
X130846643Y-63101500D01*
X124154166Y-63101500D01*
X124086045Y-63081498D01*
X124042914Y-63034652D01*
X124026962Y-63004649D01*
X124026958Y-63004642D01*
X124024066Y-62999204D01*
X123953709Y-62912938D01*
X123902960Y-62850713D01*
X123902957Y-62850710D01*
X123899065Y-62845938D01*
X123891956Y-62840057D01*
X123751425Y-62723799D01*
X123751421Y-62723797D01*
X123746675Y-62719870D01*
X123572701Y-62625802D01*
X123383768Y-62567318D01*
X123377643Y-62566674D01*
X123377642Y-62566674D01*
X123193204Y-62547289D01*
X123193202Y-62547289D01*
X123187075Y-62546645D01*
X123104576Y-62554153D01*
X122996251Y-62564011D01*
X122996248Y-62564012D01*
X122990112Y-62564570D01*
X122984206Y-62566308D01*
X122984202Y-62566309D01*
X122894669Y-62592660D01*
X122800381Y-62620410D01*
X122794923Y-62623263D01*
X122794919Y-62623265D01*
X122704147Y-62670720D01*
X122625110Y-62712040D01*
X122470975Y-62835968D01*
X122343846Y-62987474D01*
X122340879Y-62992872D01*
X122340875Y-62992877D01*
X122292156Y-63081498D01*
X122248567Y-63160787D01*
X122246706Y-63166654D01*
X122246705Y-63166656D01*
X122237831Y-63194631D01*
X122188765Y-63349306D01*
X122171500Y-63503227D01*
X122171500Y-64209769D01*
X122171800Y-64212825D01*
X122171800Y-64212832D01*
X122172530Y-64220273D01*
X122185920Y-64356833D01*
X122243084Y-64546169D01*
X122335934Y-64720796D01*
X122391842Y-64789346D01*
X122393143Y-64790941D01*
X122420697Y-64856373D01*
X122421500Y-64870577D01*
X122421500Y-66779071D01*
X122401498Y-66847192D01*
X122392030Y-66860051D01*
X122343846Y-66917474D01*
X122340879Y-66922872D01*
X122340875Y-66922877D01*
X122316835Y-66966607D01*
X122248567Y-67090787D01*
X122246706Y-67096654D01*
X122246705Y-67096656D01*
X122215407Y-67195320D01*
X122188765Y-67279306D01*
X122171500Y-67433227D01*
X122171500Y-68639769D01*
X117708500Y-68639769D01*
X117708500Y-63153250D01*
X117710246Y-63132345D01*
X117712770Y-63117344D01*
X117712770Y-63117341D01*
X117713576Y-63112552D01*
X117713729Y-63100000D01*
X117712003Y-63087947D01*
X117711001Y-63061845D01*
X117711593Y-63052817D01*
X118087514Y-63052817D01*
X118088095Y-63057837D01*
X118088095Y-63057841D01*
X118103923Y-63194631D01*
X118115415Y-63293956D01*
X118116791Y-63298820D01*
X118116792Y-63298823D01*
X118162476Y-63460266D01*
X118181510Y-63527532D01*
X118183644Y-63532108D01*
X118183646Y-63532114D01*
X118240446Y-63653922D01*
X118284099Y-63747536D01*
X118420544Y-63948307D01*
X118587332Y-64124681D01*
X118591358Y-64127759D01*
X118591359Y-64127760D01*
X118776154Y-64269047D01*
X118776158Y-64269050D01*
X118780174Y-64272120D01*
X118994109Y-64386831D01*
X119223631Y-64465862D01*
X119322978Y-64483022D01*
X119458926Y-64506504D01*
X119458932Y-64506505D01*
X119462836Y-64507179D01*
X119466797Y-64507359D01*
X119466798Y-64507359D01*
X119490506Y-64508436D01*
X119490525Y-64508436D01*
X119491925Y-64508500D01*
X119661001Y-64508500D01*
X119663509Y-64508298D01*
X119663514Y-64508298D01*
X119836924Y-64494346D01*
X119836929Y-64494345D01*
X119841965Y-64493940D01*
X119846873Y-64492734D01*
X119846876Y-64492734D01*
X120072792Y-64437244D01*
X120077706Y-64436037D01*
X120082358Y-64434062D01*
X120082362Y-64434061D01*
X120250392Y-64362736D01*
X120301156Y-64341188D01*
X120407037Y-64274511D01*
X120502288Y-64214528D01*
X120502291Y-64214526D01*
X120506567Y-64211833D01*
X120605422Y-64124681D01*
X120684858Y-64054650D01*
X120684861Y-64054647D01*
X120688655Y-64051302D01*
X120842734Y-63863722D01*
X120964841Y-63653922D01*
X121018815Y-63513313D01*
X121050020Y-63432022D01*
X121050021Y-63432018D01*
X121051833Y-63427298D01*
X121066848Y-63355425D01*
X121100440Y-63194631D01*
X121100440Y-63194627D01*
X121101474Y-63189680D01*
X121112486Y-62947183D01*
X121101045Y-62848299D01*
X121085167Y-62711071D01*
X121085166Y-62711067D01*
X121084585Y-62706044D01*
X121045517Y-62567978D01*
X121019866Y-62477331D01*
X121018490Y-62472468D01*
X121016356Y-62467892D01*
X121016354Y-62467886D01*
X120918038Y-62257046D01*
X120918036Y-62257042D01*
X120915901Y-62252464D01*
X120779456Y-62051693D01*
X120612668Y-61875319D01*
X120608641Y-61872240D01*
X120423846Y-61730953D01*
X120423842Y-61730950D01*
X120419826Y-61727880D01*
X120205891Y-61613169D01*
X119976369Y-61534138D01*
X119868157Y-61515447D01*
X119741074Y-61493496D01*
X119741068Y-61493495D01*
X119737164Y-61492821D01*
X119733203Y-61492641D01*
X119733202Y-61492641D01*
X119709494Y-61491564D01*
X119709475Y-61491564D01*
X119708075Y-61491500D01*
X119538999Y-61491500D01*
X119536491Y-61491702D01*
X119536486Y-61491702D01*
X119363076Y-61505654D01*
X119363071Y-61505655D01*
X119358035Y-61506060D01*
X119353127Y-61507266D01*
X119353124Y-61507266D01*
X119237007Y-61535787D01*
X119122294Y-61563963D01*
X119117642Y-61565938D01*
X119117638Y-61565939D01*
X119052271Y-61593686D01*
X118898844Y-61658812D01*
X118846465Y-61691797D01*
X118697712Y-61785472D01*
X118697709Y-61785474D01*
X118693433Y-61788167D01*
X118689639Y-61791512D01*
X118515142Y-61945350D01*
X118515139Y-61945353D01*
X118511345Y-61948698D01*
X118508135Y-61952606D01*
X118508134Y-61952607D01*
X118389214Y-62097384D01*
X118357266Y-62136278D01*
X118296213Y-62241178D01*
X118244237Y-62330481D01*
X118235159Y-62346078D01*
X118233346Y-62350801D01*
X118150234Y-62567318D01*
X118148167Y-62572702D01*
X118147133Y-62577652D01*
X118147132Y-62577655D01*
X118103796Y-62785095D01*
X118098526Y-62810320D01*
X118087514Y-63052817D01*
X117711593Y-63052817D01*
X117724998Y-62848299D01*
X117727149Y-62831959D01*
X117768518Y-62623980D01*
X117774749Y-62592657D01*
X117779014Y-62576740D01*
X117782213Y-62567318D01*
X117857439Y-62345708D01*
X117863746Y-62330481D01*
X117971657Y-62111658D01*
X117979898Y-62097384D01*
X118115447Y-61894522D01*
X118125480Y-61881447D01*
X118286352Y-61698007D01*
X118298007Y-61686352D01*
X118481447Y-61525480D01*
X118494522Y-61515447D01*
X118697384Y-61379898D01*
X118711658Y-61371657D01*
X118930481Y-61263746D01*
X118945708Y-61257439D01*
X119061224Y-61218227D01*
X119176743Y-61179013D01*
X119192657Y-61174749D01*
X119312310Y-61150948D01*
X119431959Y-61127149D01*
X119448299Y-61124998D01*
X119589563Y-61115738D01*
X119658237Y-61111237D01*
X119681350Y-61112267D01*
X119684854Y-61112310D01*
X119693724Y-61113691D01*
X119702626Y-61112527D01*
X119702628Y-61112527D01*
X119719449Y-61110327D01*
X119725286Y-61109564D01*
X119741621Y-61108500D01*
X135250633Y-61108500D01*
X135270018Y-61110000D01*
G37*
%TD.AperFunction*%
%TD*%
M02*
