%TF.GenerationSoftware,KiCad,Pcbnew,(6.0.5)*%
%TF.CreationDate,2022-07-03T04:30:49-06:00*%
%TF.ProjectId,usbc-daughter-board,75736263-2d64-4617-9567-687465722d62,1.0*%
%TF.SameCoordinates,Original*%
%TF.FileFunction,Soldermask,Top*%
%TF.FilePolarity,Negative*%
%FSLAX46Y46*%
G04 Gerber Fmt 4.6, Leading zero omitted, Abs format (unit mm)*
G04 Created by KiCad (PCBNEW (6.0.5)) date 2022-07-03 04:30:49*
%MOMM*%
%LPD*%
G01*
G04 APERTURE LIST*
G04 Aperture macros list*
%AMRoundRect*
0 Rectangle with rounded corners*
0 $1 Rounding radius*
0 $2 $3 $4 $5 $6 $7 $8 $9 X,Y pos of 4 corners*
0 Add a 4 corners polygon primitive as box body*
4,1,4,$2,$3,$4,$5,$6,$7,$8,$9,$2,$3,0*
0 Add four circle primitives for the rounded corners*
1,1,$1+$1,$2,$3*
1,1,$1+$1,$4,$5*
1,1,$1+$1,$6,$7*
1,1,$1+$1,$8,$9*
0 Add four rect primitives between the rounded corners*
20,1,$1+$1,$2,$3,$4,$5,0*
20,1,$1+$1,$4,$5,$6,$7,0*
20,1,$1+$1,$6,$7,$8,$9,0*
20,1,$1+$1,$8,$9,$2,$3,0*%
G04 Aperture macros list end*
%ADD10RoundRect,0.218750X-0.256250X0.218750X-0.256250X-0.218750X0.256250X-0.218750X0.256250X0.218750X0*%
%ADD11RoundRect,0.200000X-0.275000X0.200000X-0.275000X-0.200000X0.275000X-0.200000X0.275000X0.200000X0*%
%ADD12C,2.000000*%
%ADD13RoundRect,0.150000X-0.150000X0.512500X-0.150000X-0.512500X0.150000X-0.512500X0.150000X0.512500X0*%
%ADD14RoundRect,0.225000X0.250000X-0.225000X0.250000X0.225000X-0.250000X0.225000X-0.250000X-0.225000X0*%
%ADD15RoundRect,0.150000X-0.150000X-0.700000X0.150000X-0.700000X0.150000X0.700000X-0.150000X0.700000X0*%
%ADD16RoundRect,0.250000X-0.250000X-1.100000X0.250000X-1.100000X0.250000X1.100000X-0.250000X1.100000X0*%
%ADD17C,0.650000*%
%ADD18R,0.600000X1.450000*%
%ADD19R,0.300000X1.450000*%
%ADD20O,1.000000X1.600000*%
%ADD21O,1.000000X2.100000*%
G04 APERTURE END LIST*
D10*
%TO.C,F1*%
X130030000Y-71542500D03*
X130030000Y-73117500D03*
%TD*%
D11*
%TO.C,R1*%
X121340000Y-65815000D03*
X121340000Y-67465000D03*
%TD*%
D12*
%TO.C,H4*%
X135400000Y-78800000D03*
%TD*%
D13*
%TO.C,U1*%
X128450000Y-71362500D03*
X127500000Y-71362500D03*
X126550000Y-71362500D03*
X126550000Y-73637500D03*
X127500000Y-73637500D03*
X128450000Y-73637500D03*
%TD*%
D14*
%TO.C,C1*%
X131580000Y-73105000D03*
X131580000Y-71555000D03*
%TD*%
D12*
%TO.C,H2*%
X135400000Y-63000000D03*
%TD*%
%TO.C,H2*%
X119600000Y-63000000D03*
%TD*%
D15*
%TO.C,J2*%
X125615000Y-75900000D03*
X126865000Y-75900000D03*
X128115000Y-75900000D03*
X129365000Y-75900000D03*
D16*
X123765000Y-79100000D03*
X131215000Y-79100000D03*
%TD*%
D12*
%TO.C,H3*%
X119600000Y-78800000D03*
%TD*%
D11*
%TO.C,R2*%
X133650000Y-65830000D03*
X133650000Y-67480000D03*
%TD*%
D17*
%TO.C,J1*%
X130390000Y-67510000D03*
X124610000Y-67510000D03*
D18*
X130750000Y-68955000D03*
X129950000Y-68955000D03*
D19*
X128750000Y-68955000D03*
X127750000Y-68955000D03*
X127250000Y-68955000D03*
X126250000Y-68955000D03*
D18*
X125050000Y-68955000D03*
X124250000Y-68955000D03*
X124250000Y-68955000D03*
X125050000Y-68955000D03*
D19*
X125750000Y-68955000D03*
X126750000Y-68955000D03*
X128250000Y-68955000D03*
X129250000Y-68955000D03*
D18*
X129950000Y-68955000D03*
X130750000Y-68955000D03*
D20*
X131820000Y-63860000D03*
D21*
X131820000Y-68040000D03*
D20*
X123180000Y-63860000D03*
D21*
X123180000Y-68040000D03*
%TD*%
M02*
